<svg id="logo" xmlns="http://www.w3.org/2000/svg" width="488.76" height="89.394" viewBox="0 0 488.76 89.394">
  <path id="Path_139" data-name="Path 139" d="M44,88.373C20.037,88.373.505,68.645.505,44.442S19.978.51,44,.51,87.494,20.238,87.494,44.442,67.962,88.373,44,88.373Z" transform="translate(0.253 0.255)" fill="#fcddea"/>
  <path id="Path_140" data-name="Path 140" d="M44.252,1.472A43,43,0,0,1,87.047,44.7a42.8,42.8,0,1,1-85.59,0A42.965,42.965,0,0,1,44.252,1.472Zm0-1.472C19.823,0,0,20.022,0,44.7s19.823,44.7,44.252,44.7S88.5,69.372,88.5,44.7,68.623,0,44.252,0Z"/>
  <path id="Path_141" data-name="Path 141" d="M10.307,41.11l-.583-1.3a1.833,1.833,0,0,0,.816-.824,1.823,1.823,0,0,0,0-1.119,1.681,1.681,0,0,0-.641-.942.911.911,0,0,0-.758-.118.6.6,0,0,0-.35.294,1.49,1.49,0,0,0-.117.589c0,.177,0,.589.058,1.237a4.079,4.079,0,0,1-.175,1.826,1.991,1.991,0,0,1-1.166,1.119,2.317,2.317,0,0,1-1.108.059,2.079,2.079,0,0,1-.991-.648,3.389,3.389,0,0,1-.7-1.3,3.182,3.182,0,0,1-.117-2.179A2.226,2.226,0,0,1,5.76,36.575l.525,1.354a1.363,1.363,0,0,0-.641.648,1.346,1.346,0,0,0,.058.942,1.674,1.674,0,0,0,.583.883.562.562,0,0,0,.525.059.528.528,0,0,0,.35-.353,3.606,3.606,0,0,0,0-1.413,7.6,7.6,0,0,1,0-1.649,1.99,1.99,0,0,1,.466-1,1.962,1.962,0,0,1,.991-.648,2.172,2.172,0,0,1,1.224-.059,2.436,2.436,0,0,1,1.049.648,5.263,5.263,0,0,1,.758,1.413,3.3,3.3,0,0,1,.058,2.238A2.814,2.814,0,0,1,10.307,41.11Z" transform="translate(2.17 17.662)"/>
  <path id="Path_142" data-name="Path 142" d="M9.092,34.984l-1.341.294-.292-1.355L8.8,33.63Z" transform="translate(3.735 16.838)"/>
  <path id="Path_143" data-name="Path 143" d="M3.446,35.6l-.175-2.709A5.23,5.23,0,0,1,3.33,31.48a2.571,2.571,0,0,1,.583-1.119A2.9,2.9,0,0,1,5.021,29.6a6.084,6.084,0,0,1,1.691-.353,4.518,4.518,0,0,1,1.574.118,3.259,3.259,0,0,1,1.341.707,2.465,2.465,0,0,1,.641,1,5.754,5.754,0,0,1,.233,1.3l.175,2.768Zm1.108-1.531,4.781-.294-.058-1.119a2.9,2.9,0,0,0-.117-.883,1.224,1.224,0,0,0-.35-.589,1.958,1.958,0,0,0-.7-.353,4.644,4.644,0,0,0-1.341-.059,5.015,5.015,0,0,0-1.283.236,2.094,2.094,0,0,0-.7.471,1.3,1.3,0,0,0-.292.707,4.124,4.124,0,0,0,0,1.237Z" transform="translate(1.626 14.63)"/>
  <path id="Path_144" data-name="Path 144" d="M8.509,29.236l-1.4-.118L7.226,27.7l1.4.118Z" transform="translate(3.56 13.872)"/>
  <path id="Path_145" data-name="Path 145" d="M12.106,21.7,11.7,23.232l-1.749.177-.758,2.827,1.4,1-.35,1.531L4,24.115l.408-1.531Zm-3.44,1.826-2.857.235,2.332,1.649Z" transform="translate(2.004 10.865)"/>
  <path id="Path_146" data-name="Path 146" d="M5.089,21.185,6.256,18.77a5.811,5.811,0,0,1,.758-1.178,2.411,2.411,0,0,1,1.108-.707,2.616,2.616,0,0,1,1.341-.118,5.223,5.223,0,0,1,1.633.53,8.14,8.14,0,0,1,1.283.883,3.456,3.456,0,0,1,.816,1.3,2.639,2.639,0,0,1,.058,1.178,3.289,3.289,0,0,1-.466,1.237l-1.224,2.473Zm1.749-.766L11.153,22.6l.466-1a6.776,6.776,0,0,0,.35-.824,1.216,1.216,0,0,0,0-.648,1.956,1.956,0,0,0-.466-.648A4.55,4.55,0,0,0,10.4,18.77,6.909,6.909,0,0,0,9.171,18.3a1.854,1.854,0,0,0-.816.059,1.1,1.1,0,0,0-.583.471,6.807,6.807,0,0,0-.583,1.06Z" transform="translate(2.548 8.378)"/>
  <path id="Path_147" data-name="Path 147" d="M16.768,15.364l-.991,1.3-1.691-.53-1.749,2.3L13.27,19.9l-.933,1.237L8.314,14.422l.933-1.237Zm-3.906.353-2.74-.883,1.516,2.414Z" transform="translate(4.163 6.602)"/>
  <path id="Path_148" data-name="Path 148" d="M15.465,17.69l-4.781-5.477,2.332-2.061a6.343,6.343,0,0,1,1.4-1,1.435,1.435,0,0,1,1.108-.059,2.629,2.629,0,0,1,.991.648,2.087,2.087,0,0,1,.525,1.355,2.493,2.493,0,0,1-.641,1.472,2.894,2.894,0,0,1,.991-.059,7.794,7.794,0,0,1,1.4.353l1.574.471L19.021,14.51l-1.807-.471a7.851,7.851,0,0,0-1.283-.294,1.6,1.6,0,0,0-.525.059,1.52,1.52,0,0,0-.583.412l-.233.177,1.982,2.3Zm-1.691-4.122.816-.707a6.529,6.529,0,0,0,.933-.942.882.882,0,0,0,.117-.53,1.064,1.064,0,0,0-.233-.53.8.8,0,0,0-.525-.294.761.761,0,0,0-.583.177,9,9,0,0,0-.816.707l-.875.766Z" transform="translate(5.349 4.511)"/>
  <path id="Path_149" data-name="Path 149" d="M16.537,12.906l1.166-.824a1.723,1.723,0,0,0,.991.648,1.592,1.592,0,0,0,1.108-.235,1.674,1.674,0,0,0,.758-.824A.872.872,0,0,0,20.5,10.9c-.058-.177-.233-.236-.35-.294a1.166,1.166,0,0,0-.641,0,9.042,9.042,0,0,0-1.166.353,4.325,4.325,0,0,1-1.807.236,1.868,1.868,0,0,1-1.341-.942,1.6,1.6,0,0,1-.233-1.06,2.021,2.021,0,0,1,.408-1.119,3.616,3.616,0,0,1,1.108-.942,2.882,2.882,0,0,1,2.041-.53,2.455,2.455,0,0,1,1.458,1l-1.224.824a.991.991,0,0,0-.758-.471,1.556,1.556,0,0,0-.933.236,1.721,1.721,0,0,0-.7.766.578.578,0,0,0,.058.53c.058.177.233.236.408.294a3.329,3.329,0,0,0,1.4-.294,5.425,5.425,0,0,1,1.632-.353,1.98,1.98,0,0,1,1.049.236,2.2,2.2,0,0,1,.816.824,2.085,2.085,0,0,1,.292,1.178,2.206,2.206,0,0,1-.408,1.178,5.717,5.717,0,0,1-1.224,1.06,3.1,3.1,0,0,1-2.157.53A3.583,3.583,0,0,1,16.537,12.906Z" transform="translate(7.484 3.289)"/>
  <path id="Path_150" data-name="Path 150" d="M21.136,13.071l-2.449-6.89,1.4-.53.991,2.709,2.682-1L22.769,4.65l1.4-.53,2.449,6.89-1.4.53-1.049-3-2.682,1,1.049,3Z" transform="translate(9.357 2.063)"/>
  <path id="Path_151" data-name="Path 151" d="M26.089,10.823l-.641-7.243L27.779,3.4a9.772,9.772,0,0,1,1.749-.059,1.811,1.811,0,0,1,1.108.648,2.549,2.549,0,0,1,.525,1.354,2.541,2.541,0,0,1-.117,1.178,1.5,1.5,0,0,1-.525.766,2.179,2.179,0,0,1-.7.412,6.842,6.842,0,0,1-1.516.236L27.371,8l.233,2.768ZM27.022,4.7,27.2,6.759l.816-.059a3.579,3.579,0,0,0,1.166-.236.923.923,0,0,0,.408-.412.977.977,0,0,0,.117-.589.95.95,0,0,0-.291-.648,1.092,1.092,0,0,0-.641-.294,8.808,8.808,0,0,0-1.049.059Z" transform="translate(12.741 1.662)"/>
  <path id="Path_152" data-name="Path 152" d="M30.356,3.179l1.457.118-.408,3.946c-.058.648-.058,1.06-.058,1.237a1.835,1.835,0,0,0,.35.766,1.5,1.5,0,0,0,.933.353,1.124,1.124,0,0,0,.933-.177,1.493,1.493,0,0,0,.466-.589A10.059,10.059,0,0,0,34.2,7.6l.408-4,1.457.177L35.661,7.6a7.752,7.752,0,0,1-.292,1.826,2.222,2.222,0,0,1-.525.883,2.059,2.059,0,0,1-.933.53,3.494,3.494,0,0,1-1.4.059A2.937,2.937,0,0,1,31,10.481a1.778,1.778,0,0,1-.758-.707,2.508,2.508,0,0,1-.35-.824,7.145,7.145,0,0,1,.058-1.884Z" transform="translate(14.946 1.592)"/>
  <path id="Path_153" data-name="Path 153" d="M35.938,3.806l2.8.824a6.757,6.757,0,0,1,1.224.471,1.869,1.869,0,0,1,.991,1.3,1.53,1.53,0,0,1-.058.883,2,2,0,0,1-.525.824,1.721,1.721,0,0,1-.875.412,1.671,1.671,0,0,1,.758.942,2.024,2.024,0,0,1,0,1.178,2.358,2.358,0,0,1-.525.883,2.442,2.442,0,0,1-.816.53,2.036,2.036,0,0,1-1.049.059,17.182,17.182,0,0,1-1.691-.471l-2.332-.707Zm.233,4.358-.583,1.884,1.283.412a3.523,3.523,0,0,0,.991.236.951.951,0,0,0,.583-.118.857.857,0,0,0,.35-.53,1.007,1.007,0,0,0,0-.589.914.914,0,0,0-.35-.471,4.776,4.776,0,0,0-1.224-.471ZM36.988,5.4l-.466,1.59.933.294c.525.177.875.236,1.049.294a1.147,1.147,0,0,0,.641-.059.73.73,0,0,0,.35-.471,1.007,1.007,0,0,0,0-.589c-.058-.177-.233-.294-.466-.412-.117-.059-.525-.177-1.166-.412Z" transform="translate(16.943 1.906)"/>
  <path id="Path_154" data-name="Path 154" d="M37.88,11.932l3.265-6.478,1.283.648-2.74,5.359,3.207,1.649-.583,1.119Z" transform="translate(18.966 2.731)"/>
  <path id="Path_155" data-name="Path 155" d="M41.065,13.561,45.088,7.5l1.224.824L42.29,14.385Z" transform="translate(20.561 3.753)"/>
  <path id="Path_156" data-name="Path 156" d="M47.148,14.858l.758,1.3a2.977,2.977,0,0,1-1.982.589,3.08,3.08,0,0,1-1.807-.883A3.12,3.12,0,0,1,43.008,13.5a4.042,4.042,0,0,1,1.108-2.65,3.9,3.9,0,0,1,2.565-1.472,3.385,3.385,0,0,1,2.507.883A3.164,3.164,0,0,1,50.3,12.326a2.651,2.651,0,0,1-.35,1.531l-1.283-.707a1.6,1.6,0,0,0,.175-1,1.4,1.4,0,0,0-.525-.883,1.489,1.489,0,0,0-1.341-.412,2.768,2.768,0,0,0-1.633,1.06,3.2,3.2,0,0,0-.933,1.825,1.6,1.6,0,0,0,.583,1.3,1.646,1.646,0,0,0,.991.412A7.085,7.085,0,0,0,47.148,14.858Z" transform="translate(21.534 4.693)"/>
  <path id="Path_157" data-name="Path 157" d="M47.966,15.874l.875,1.119a2.023,2.023,0,0,0-.583,1,1.482,1.482,0,0,0,.291,1.06,1.311,1.311,0,0,0,.816.707.829.829,0,0,0,.758-.059,1.56,1.56,0,0,0,.292-.353.993.993,0,0,0,0-.589c-.058-.177-.175-.589-.408-1.178a3.665,3.665,0,0,1-.292-1.767,1.675,1.675,0,0,1,.875-1.355,2,2,0,0,1,1.049-.294,1.906,1.906,0,0,1,1.108.353,3.474,3.474,0,0,1,.991,1.06,3.134,3.134,0,0,1,.641,2.061,2.043,2.043,0,0,1-.933,1.472l-.875-1.178a1.369,1.369,0,0,0,.466-.766,1.965,1.965,0,0,0-1.049-1.649.561.561,0,0,0-.525.059.6.6,0,0,0-.233.412,3.89,3.89,0,0,0,.35,1.413,6.069,6.069,0,0,1,.408,1.649,1.586,1.586,0,0,1-.175,1.06A1.963,1.963,0,0,1,51,21a2.087,2.087,0,0,1-1.166.353A2.43,2.43,0,0,1,48.607,21,4.313,4.313,0,0,1,47.5,19.82a3.193,3.193,0,0,1-.641-2.12A2.911,2.911,0,0,1,47.966,15.874Z" transform="translate(23.456 7.093)"/>
  <path id="Path_158" data-name="Path 158" d="M52.48,23.568,52.6,25.04a3.214,3.214,0,0,1-2.041-.294,2.986,2.986,0,0,1-1.283-1.59,3.33,3.33,0,0,1,0-2.591,3.833,3.833,0,0,1,2.1-1.943,4.1,4.1,0,0,1,2.973-.236,3.122,3.122,0,0,1,1.866,1.884,3.16,3.16,0,0,1,.117,2.3,3.457,3.457,0,0,1-.933,1.237l-.875-1.237a1.549,1.549,0,0,0,.583-.824,1.657,1.657,0,0,0-.058-1.06,1.944,1.944,0,0,0-1.049-1,2.958,2.958,0,0,0-1.924.236,3.157,3.157,0,0,0-1.633,1.237,1.711,1.711,0,0,0-.058,1.413,1.387,1.387,0,0,0,.758.766A1.745,1.745,0,0,0,52.48,23.568Z" transform="translate(24.54 9.116)"/>
  <path id="Path_159" data-name="Path 159" d="M50.079,23.957l7.113-1.472.291,1.472-2.8.589.583,2.827,2.8-.589.292,1.472-7.113,1.472-.292-1.472,3.09-.648-.583-2.827-3.09.648Z" transform="translate(25.074 11.258)"/>
  <path id="Path_160" data-name="Path 160" d="M54.49,27.39a5.645,5.645,0,0,1,1.866.294,3.6,3.6,0,0,1,.991.648,2.466,2.466,0,0,1,.641.942,4.538,4.538,0,0,1,.291,1.59,3.534,3.534,0,0,1-.933,2.591,3.763,3.763,0,0,1-6.53-2.473,3.535,3.535,0,0,1,.933-2.591A3.825,3.825,0,0,1,54.49,27.39Zm.058,1.531a2.831,2.831,0,0,0-1.866.589,1.77,1.77,0,0,0-.583,1.472,1.8,1.8,0,0,0,.641,1.413,2.9,2.9,0,0,0,1.924.53,2.83,2.83,0,0,0,1.866-.589,1.878,1.878,0,0,0,.583-1.472,1.923,1.923,0,0,0-.641-1.472A2.691,2.691,0,0,0,54.548,28.922Z" transform="translate(25.444 13.714)"/>
  <path id="Path_161" data-name="Path 161" d="M54.768,32.493a6.043,6.043,0,0,1,1.749.707,2.945,2.945,0,0,1,.816.883,4.207,4.207,0,0,1,.466,1.06,3.72,3.72,0,0,1-.058,1.59,3.259,3.259,0,0,1-1.516,2.3,3.946,3.946,0,0,1-2.915.353A3.788,3.788,0,0,1,50.8,37.852a3.826,3.826,0,0,1,1.049-5.065A4.4,4.4,0,0,1,54.768,32.493Zm-.233,1.531a2.544,2.544,0,0,0-1.924.177,2,2,0,0,0-.641,2.827,2.8,2.8,0,0,0,1.749.942,2.544,2.544,0,0,0,1.924-.177,1.876,1.876,0,0,0,.875-1.3,2.139,2.139,0,0,0-.292-1.59A2.9,2.9,0,0,0,54.535,34.024Z" transform="translate(25.166 16.209)"/>
  <path id="Path_162" data-name="Path 162" d="M50.527,36.691l6.647,2.768-.583,1.355-5.481-2.3-1.4,3.357L48.6,41.4Z" transform="translate(24.335 18.371)"/>
  <path id="Path_163" data-name="Path 163" d="M18.1,54.43l2.215-5.182,1.049.471-.991,2.3,3.09-1.413,1.4.589-2.8,1.178.7,4.063-1.341-.589-.35-3.062-1.224.471-.641,1.59Z" transform="translate(9.065 24.658)"/>
  <path id="Path_164" data-name="Path 164" d="M27.1,57.2,25.935,56.9l-.175-1.354-2.157-.53-.758,1.119-1.166-.294,3.44-4.947,1.166.294Zm-1.516-2.65-.233-2.238-1.224,1.826Z" transform="translate(10.855 25.484)"/>
  <path id="Path_165" data-name="Path 165" d="M26.147,57.04l.408-5.594,2.332.177a4.535,4.535,0,0,1,1.283.236,1.143,1.143,0,0,1,.583.589,2.383,2.383,0,0,1,.175.883,1.472,1.472,0,0,1-.466,1,1.7,1.7,0,0,1-1.108.412,5.269,5.269,0,0,1,.583.53c.117.177.35.53.583.942l.583,1.119-1.341-.118-.7-1.3a4.1,4.1,0,0,0-.525-.883c-.117-.118-.233-.235-.35-.235a3.238,3.238,0,0,0-.583-.118h-.233L27.2,57.04Zm1.341-3.121.816.059a2.545,2.545,0,0,0,.991,0,1.22,1.22,0,0,0,.35-.236.859.859,0,0,0,.117-.412.639.639,0,0,0-.117-.471.589.589,0,0,0-.408-.236,7.975,7.975,0,0,0-.816-.059l-.875-.059Z" transform="translate(13.092 25.759)"/>
  <path id="Path_166" data-name="Path 166" d="M30.557,57.393,30.032,51.8l1.108-.118,2.624,3.533-.35-3.769,1.049-.118.525,5.594-1.108.118-2.565-3.416.292,3.71Z" transform="translate(15.037 25.7)"/>
  <path id="Path_167" data-name="Path 167" d="M39.611,55.627l-1.166.294L37.629,54.8l-2.157.589-.117,1.355-1.166.294.641-6.007L36,50.739Zm-2.565-1.59-1.283-1.826-.175,2.238Z" transform="translate(17.118 25.405)"/>
  <path id="Path_168" data-name="Path 168" d="M39.4,55.509,37.18,50.386l1.049-.471,1.866,4.24,2.565-1.119.408.883Z" transform="translate(18.616 24.992)"/>
  <path id="Path_169" data-name="Path 169" d="M10.956,34.622l.233-1.06a28.087,28.087,0,0,1,55.155.059l.233,1.06H10.956Z" transform="translate(5.486 5.423)" fill="#ffff9f"/>
  <path id="Path_170" data-name="Path 170" d="M39.1,11.989A27.4,27.4,0,0,1,65.859,34.073H12.336A27.352,27.352,0,0,1,39.1,11.989Zm0-1.708A29.1,29.1,0,0,0,10.7,33.719L10.3,35.78H67.9l-.408-2.061A29.141,29.141,0,0,0,39.1,10.281Z" transform="translate(5.155 5.148)"/>
  <path id="Path_171" data-name="Path 171" d="M65.878,26.724A28.136,28.136,0,0,1,66.4,32.2a27.287,27.287,0,1,1-54.572,0,28.136,28.136,0,0,1,.525-5.477Zm1.4-1.767H11.015l-.291,1.413a28.248,28.248,0,0,0-.583,5.83,28.978,28.978,0,1,0,57.954,0,28.248,28.248,0,0,0-.583-5.83Z" transform="translate(5.077 12.496)"/>
  <path id="Path_172" data-name="Path 172" d="M29.774,15.5s1.516.471,1.516,1.649-.175,1.178-.408,1.237-.117,1.178-.117,1.178H29.307V18.445h-.525s-.641-.589.292-.883A2,2,0,0,0,29.774,15.5Z" transform="translate(14.304 7.761)" fill="#ffcf09"/>
  <path id="Path_173" data-name="Path 173" d="M20.319,29.459H47.838S48.13,17.976,34.254,17.74C34.254,17.74,22.01,16.975,20.319,29.459Z" transform="translate(10.174 8.878)" fill="#ff6f03"/>
  <path id="Path_174" data-name="Path 174" d="M33.7,43.586a.5.5,0,0,1-.35-.177,11.5,11.5,0,0,0-7.988-3.533,11.025,11.025,0,0,0-4.256.883c-.058,0-.117.059-.175.059a.442.442,0,0,1-.291-.118.461.461,0,0,1-.117-.471l3.5-14.487c0-.118.058-.177.175-.236a7.427,7.427,0,0,1,4.023-1.178,10.026,10.026,0,0,1,5.772,2.061.421.421,0,0,1,.175.353v16.43a.442.442,0,0,1-.291.412Z" transform="translate(10.263 12.182)" fill="#fff"/>
  <path id="Path_175" data-name="Path 175" d="M29.8,43.586h-.175a.442.442,0,0,1-.291-.412V26.744a.357.357,0,0,1,.175-.353,10.026,10.026,0,0,1,5.772-2.061A6.708,6.708,0,0,1,39.3,25.566c.058.059.117.177.175.236l3.5,14.487a.462.462,0,0,1-.117.471.444.444,0,0,1-.292.118.213.213,0,0,1-.175-.059,11.028,11.028,0,0,0-4.256-.883,11.771,11.771,0,0,0-7.988,3.533A.622.622,0,0,1,29.8,43.586Z" transform="translate(14.687 12.182)" fill="#fff"/>
  <path id="Path_176" data-name="Path 176" d="M44.5,25.841a2.388,2.388,0,0,0-.291-.53,7.319,7.319,0,0,0-4.315-1.3,10.275,10.275,0,0,0-5.772,1.943,10.276,10.276,0,0,0-5.772-1.943,7.529,7.529,0,0,0-4.314,1.3.62.62,0,0,0-.292.53l-3.5,14.487a.928.928,0,0,0,.292.883,1.031,1.031,0,0,0,.583.235.734.734,0,0,0,.35-.059,10.2,10.2,0,0,1,4.081-.883A11.01,11.01,0,0,1,33.19,43.92a.961.961,0,0,0,.7.294h.583a1.071,1.071,0,0,0,.7-.294A10.846,10.846,0,0,1,42.81,40.5a10.2,10.2,0,0,1,4.081.883.734.734,0,0,0,.35.059.745.745,0,0,0,.583-.235,1.031,1.031,0,0,0,.292-.883Zm-22.972,12.9,3.09-12.72A6.336,6.336,0,0,1,28.35,24.9a9.363,9.363,0,0,1,5.131,1.708v14.9C29.691,37.678,23.045,38.5,21.529,38.738Zm13.235,2.709V26.666a9.363,9.363,0,0,1,5.131-1.708,6.336,6.336,0,0,1,3.731,1.119l3.09,12.72C45.434,38.561,38.612,37.56,34.764,41.447Z" transform="translate(10.13 12.025)"/>
  <path id="Path_177" data-name="Path 177" d="M26.536,26.724h9.037a.236.236,0,0,0,0-.471H26.536a.252.252,0,0,0-.233.236A.215.215,0,0,0,26.536,26.724Z" transform="translate(13.17 13.145)"/>
  <path id="Path_178" data-name="Path 178" d="M35.573,26.92H26.536a.236.236,0,0,0,0,.471h9.037a.236.236,0,0,0,0-.471Z" transform="translate(13.17 13.479)"/>
  <path id="Path_179" data-name="Path 179" d="M35.573,27.587H26.536a.236.236,0,0,0,0,.471h9.037a.236.236,0,0,0,0-.471Z" transform="translate(13.17 13.813)"/>
  <path id="Path_180" data-name="Path 180" d="M35.573,28.254H26.536a.236.236,0,0,0,0,.471h9.037a.236.236,0,0,0,0-.471Z" transform="translate(13.17 14.147)"/>
  <path id="Path_181" data-name="Path 181" d="M35.573,28.921H26.536a.236.236,0,0,0,0,.471h9.037a.236.236,0,0,0,0-.471Z" transform="translate(13.17 14.481)"/>
  <path id="Path_182" data-name="Path 182" d="M35.573,29.588H26.536a.236.236,0,0,0,0,.471h9.037a.236.236,0,0,0,0-.471Z" transform="translate(13.17 14.815)"/>
  <path id="Path_183" data-name="Path 183" d="M35.573,30.294H26.536a.236.236,0,0,0,0,.471h9.037a.236.236,0,0,0,0-.471Z" transform="translate(13.17 15.168)"/>
  <path id="Path_184" data-name="Path 184" d="M35.573,30.961H26.536a.236.236,0,0,0,0,.471h9.037a.236.236,0,0,0,0-.471Z" transform="translate(13.17 15.502)"/>
  <path id="Path_185" data-name="Path 185" d="M35.573,31.628H26.536a.236.236,0,0,0,0,.471h9.037a.236.236,0,0,0,0-.471Z" transform="translate(13.17 15.836)"/>
  <path id="Path_186" data-name="Path 186" d="M35.573,32.3H26.536a.236.236,0,0,0,0,.471h9.037a.236.236,0,0,0,0-.471Z" transform="translate(13.17 16.17)"/>
  <path id="Path_187" data-name="Path 187" d="M35.595,32.963H26.558a.236.236,0,0,0,0,.471h3.557a7.2,7.2,0,0,0-3.79,2.179c-.117.118-.058.235,0,.353.117.118.233.059.35,0a6.315,6.315,0,0,1,4.14-2.061,5.292,5.292,0,0,1,3.906,2.061.289.289,0,0,0,.35,0,.222.222,0,0,0,0-.353,5.83,5.83,0,0,0-3.615-2.179h4.081a.252.252,0,0,0,.233-.235C35.77,33.081,35.711,32.963,35.595,32.963Z" transform="translate(13.147 16.504)"/>
  <path id="Path_188" data-name="Path 188" d="M30.985,44.637v3.533h-.7l-.875-.412-.525-.883-.292.118-.7-.177-.466-.648-.175-.766-.058-.766.816.059h.933c.117,0,1.049-.118,1.049-.118l.466-.118h.233Z" transform="translate(13.617 22.261)" fill="#253682"/>
  <path id="Path_189" data-name="Path 189" d="M32.443,42.538h-.35a1.9,1.9,0,0,0-1.516.824c.058.118.175.177.233.294h.117a1.259,1.259,0,0,1,1.166-.707h.35a1.241,1.241,0,0,1,1.283,1.178v2.12a1.2,1.2,0,0,1-1.108,1.178v-2.12a1.719,1.719,0,0,0-1.632-1.649c-.058.059-.058.118-.058.236a2.572,2.572,0,0,1,.058.294,1.215,1.215,0,0,1,1.166,1.178v2.179a.856.856,0,0,1-.117.412v.059a.789.789,0,0,1-.35.412,1.384,1.384,0,0,1-.816.294h-.35a1.385,1.385,0,0,1-.816-.294c-.117-.059-.175-.177-.233-.236s-.117-.118-.117-.177a.445.445,0,0,1-.058-.294c0-.059-.058-.118-.058-.177v-2.12a1.2,1.2,0,0,1,1.108-1.178c0-.118.058-.177.058-.294-.058-.059-.058-.118-.117-.177a1.709,1.709,0,0,0-1.574,1.649v2.12c0,.059.058.118.058.177A1.215,1.215,0,0,1,27.6,46.542v-2.12a1.241,1.241,0,0,1,1.283-1.178h.35a1.319,1.319,0,0,1,1.049.53c.058,0,.117-.059.175-.059l.175-.353a1.82,1.82,0,0,0-1.4-.707h-.35a1.765,1.765,0,0,0-1.807,1.708v2.12a1.765,1.765,0,0,0,1.807,1.708,1.492,1.492,0,0,0,.466.589v.648a1.2,1.2,0,0,0,.641,1v1.237h1.341V50.429a1.089,1.089,0,0,0,.641-1V48.78a2.029,2.029,0,0,0,.525-.707,1.751,1.751,0,0,0,1.749-1.708v-2.12A1.765,1.765,0,0,0,32.443,42.538Zm-1.924,6.713a1.329,1.329,0,0,1-.816-.235A1.883,1.883,0,0,0,30.519,49.251Z" transform="translate(13.558 21.299)"/>
  <path id="Path_190" data-name="Path 190" d="M33.656,47.132a10.623,10.623,0,0,1-2.274-.294,6.118,6.118,0,0,1,.875-4.3,5.481,5.481,0,0,1,3.207-2.356,6.6,6.6,0,0,1,2.274-.353,3.112,3.112,0,0,0-.7,1.413,9.108,9.108,0,0,0-.292,2,13.78,13.78,0,0,1-.292,2.238C36.279,46.543,35.288,47.132,33.656,47.132Z" transform="translate(15.669 19.943)" fill="#ff2b05"/>
  <path id="Path_191" data-name="Path 191" d="M37.463,40.027a3.7,3.7,0,0,0-.525,1.178,10.3,10.3,0,0,0-.292,2.061,12.289,12.289,0,0,1-.291,2.179c-.233,1.06-1.049,1.59-2.682,1.59a7.317,7.317,0,0,1-2.1-.294,5.873,5.873,0,0,1,.875-4.122,5.57,5.57,0,0,1,3.09-2.3A16.615,16.615,0,0,1,37.463,40.027Zm.758-.353a8.305,8.305,0,0,0-2.74.412,5.924,5.924,0,0,0-3.323,2.473,5.744,5.744,0,0,0-.875,4.476,9.539,9.539,0,0,0,2.449.353c1.341,0,2.74-.353,3.032-1.825.35-1.413.233-3.18.583-4.24A2.66,2.66,0,0,1,38.221,39.674Z" transform="translate(15.593 19.863)"/>
  <path id="Path_192" data-name="Path 192" d="M31.418,47.427c-.816,0-1.516-.118-1.749-.118a6.3,6.3,0,0,1,.35-4.77,5.657,5.657,0,0,1,3.148-2.886,9.3,9.3,0,0,1,2.449-.648,2.909,2.909,0,0,0-.583,1.59,9.48,9.48,0,0,0,0,2.238,11.692,11.692,0,0,1,0,2.473C34.975,47.074,33.051,47.427,31.418,47.427Z" transform="translate(14.7 19.53)" fill="#ff2b05"/>
  <path id="Path_193" data-name="Path 193" d="M35.34,39.261a3.373,3.373,0,0,0-.408,1.355,9.546,9.546,0,0,0,0,2.238,11.135,11.135,0,0,1,0,2.414c-.058,1.355-1.224,2.061-3.44,2.061a9,9,0,0,1-1.574-.118,6.511,6.511,0,0,1,.35-4.593,5.65,5.65,0,0,1,3.09-2.827A8.057,8.057,0,0,1,35.34,39.261Zm.7-.412a10.241,10.241,0,0,0-2.915.707,6.267,6.267,0,0,0-3.557,7.95,10.6,10.6,0,0,0,1.866.177c1.632,0,3.731-.412,3.848-2.355.175-1.531-.233-3.475,0-4.652A3.708,3.708,0,0,1,36.04,38.849Z" transform="translate(14.626 19.452)"/>
  <path id="Path_194" data-name="Path 194" d="M27.489,47.132c-1.691,0-2.624-.589-2.857-1.708a13.8,13.8,0,0,1-.291-2.238,9.109,9.109,0,0,0-.292-2,2.407,2.407,0,0,0-.7-1.354,11.568,11.568,0,0,1,2.274.353,5.736,5.736,0,0,1,3.207,2.356,6.118,6.118,0,0,1,.875,4.3A9.35,9.35,0,0,1,27.489,47.132Z" transform="translate(11.691 19.943)" fill="#ff2b05"/>
  <path id="Path_195" data-name="Path 195" d="M23.875,40.026a7.577,7.577,0,0,1,1.807.353,5.641,5.641,0,0,1,3.09,2.3,5.558,5.558,0,0,1,.875,4.122,10.344,10.344,0,0,1-2.1.294c-1.574,0-2.449-.53-2.682-1.59a13.959,13.959,0,0,1-.291-2.179,10.3,10.3,0,0,0-.292-2.061A2.769,2.769,0,0,0,23.875,40.026Zm-.758-.353a3.118,3.118,0,0,1,.875,1.59c.35,1.06.233,2.827.583,4.24.291,1.472,1.691,1.826,3.032,1.826a10.792,10.792,0,0,0,2.449-.353,5.728,5.728,0,0,0-.875-4.476,5.923,5.923,0,0,0-3.323-2.473A19.144,19.144,0,0,0,23.117,39.673Z" transform="translate(11.573 19.864)"/>
  <path id="Path_196" data-name="Path 196" d="M29.626,47.447c-1.632,0-3.557-.353-3.673-2.179a11.692,11.692,0,0,1,0-2.473,9.54,9.54,0,0,0,0-2.238,2.909,2.909,0,0,0-.583-1.59,9.3,9.3,0,0,1,2.449.648,5.968,5.968,0,0,1,3.148,2.945,6.6,6.6,0,0,1,.35,4.77A8.548,8.548,0,0,1,29.626,47.447Z" transform="translate(12.703 19.511)" fill="#ff2b05"/>
  <path id="Path_197" data-name="Path 197" d="M25.876,39.261a6.919,6.919,0,0,1,2.041.589,5.852,5.852,0,0,1,3.09,2.827,6.188,6.188,0,0,1,.35,4.593,8.984,8.984,0,0,1-1.574.118c-2.215,0-3.382-.707-3.44-2.061a11.144,11.144,0,0,1,0-2.414,9.539,9.539,0,0,0,0-2.238A4.363,4.363,0,0,0,25.876,39.261Zm-.7-.412a3.093,3.093,0,0,1,.758,1.826c.175,1.178-.175,3.121,0,4.652.117,1.943,2.215,2.355,3.848,2.355a9.793,9.793,0,0,0,1.866-.177,6.368,6.368,0,0,0-.291-4.947,6.087,6.087,0,0,0-3.265-3A11.179,11.179,0,0,0,25.177,38.849Z" transform="translate(12.604 19.452)"/>
  <path id="Path_198" data-name="Path 198" d="M30.5,48.076c-.525-.294-3.148-1.943-3.148-4.593s2.507-5.477,3.148-6.125c.641.648,3.148,3.533,3.148,6.125C33.706,46.132,31.082,47.722,30.5,48.076Z" transform="translate(13.695 18.705)" fill="#ff2c05"/>
  <path id="Path_199" data-name="Path 199" d="M30.577,37.692c.816.883,2.973,3.475,2.973,5.889s-2.274,4-2.973,4.417c-.7-.412-2.973-1.943-2.973-4.417C27.6,41.166,29.819,38.575,30.577,37.692Zm0-.53s-3.382,3.3-3.382,6.36,3.382,4.77,3.382,4.77,3.382-1.708,3.382-4.77C33.959,40.518,30.577,37.162,30.577,37.162Z" transform="translate(13.617 18.607)"/>
  <path id="Path_200" data-name="Path 200" d="M65.192,20.707l5.189-.412a5.325,5.325,0,0,0,.7,2.3,2.654,2.654,0,0,0,2.39,1.3,2.51,2.51,0,0,0,1.807-.648,2.149,2.149,0,0,0,.641-1.531,2.056,2.056,0,0,0-.583-1.472A7.038,7.038,0,0,0,72.538,19a11.317,11.317,0,0,1-5.131-2.591,5.491,5.491,0,0,1-1.516-4.063,6.163,6.163,0,0,1,.816-3.062,6.035,6.035,0,0,1,2.39-2.3,9.812,9.812,0,0,1,4.373-.824A7.923,7.923,0,0,1,78.66,7.692c1.224,1,1.866,2.591,2.1,4.829l-5.131.353a3.216,3.216,0,0,0-.875-2.061,2.611,2.611,0,0,0-1.807-.648,2.168,2.168,0,0,0-1.458.471,1.443,1.443,0,0,0-.466,1.178,1.064,1.064,0,0,0,.408.883,3.774,3.774,0,0,0,1.807.766,18.788,18.788,0,0,1,5.131,1.884A5.833,5.833,0,0,1,80.642,17.7a7,7,0,0,1,.7,3.121,7.68,7.68,0,0,1-.933,3.769,6.562,6.562,0,0,1-2.624,2.591,9.137,9.137,0,0,1-4.256.883c-3.032,0-5.073-.707-6.239-2.061A8.629,8.629,0,0,1,65.192,20.707Z" transform="translate(32.642 3.085)" fill="#fff"/>
  <path id="Path_201" data-name="Path 201" d="M77,16.6H82.25v5.889H77Z" transform="translate(38.555 8.311)" fill="#fff"/>
  <path id="Path_202" data-name="Path 202" d="M82.17,6.4h8.1a8.408,8.408,0,0,1,3.906.766A6.89,6.89,0,0,1,96.629,9.4a10.509,10.509,0,0,1,1.4,3.416,18.641,18.641,0,0,1,.408,4.122,18.143,18.143,0,0,1-.641,5.3,8.6,8.6,0,0,1-1.807,3.121,6,6,0,0,1-2.449,1.708,10.094,10.094,0,0,1-3.265.589h-8.1Zm5.481,4.829v11.6h1.341a4.827,4.827,0,0,0,2.449-.471,2.779,2.779,0,0,0,1.108-1.59,11.507,11.507,0,0,0,.408-3.71c0-2.238-.292-3.769-.933-4.593a3.5,3.5,0,0,0-3.032-1.237Z" transform="translate(41.142 3.203)" fill="#fff"/>
  <path id="Path_203" data-name="Path 203" d="M93.9,16.6H99.15v5.889H93.9Z" transform="translate(47.017 8.311)" fill="#fff"/>
  <path id="Path_204" data-name="Path 204" d="M115.49,24.122h-6.18l-.875,3.474h-5.6l6.647-21.2h5.947l6.647,21.2h-5.713Zm-1.166-4.593-1.924-7.6-1.924,7.6Z" transform="translate(51.491 3.203)" fill="#fff"/>
  <path id="Path_205" data-name="Path 205" d="M116.32,6.4h8.1a8.407,8.407,0,0,1,3.906.766A6.905,6.905,0,0,1,130.779,9.4a10.508,10.508,0,0,1,1.4,3.416,18.668,18.668,0,0,1,.408,4.122,18.147,18.147,0,0,1-.641,5.3,8.6,8.6,0,0,1-1.808,3.121,6.007,6.007,0,0,1-2.448,1.708,10.1,10.1,0,0,1-3.266.589h-8.1Zm5.481,4.829v11.6h1.34a4.83,4.83,0,0,0,2.449-.471,2.774,2.774,0,0,0,1.108-1.59,11.52,11.52,0,0,0,.408-3.71c0-2.238-.291-3.769-.932-4.593a3.507,3.507,0,0,0-3.033-1.237Z" transform="translate(58.241 3.203)" fill="#fff"/>
  <path id="Path_206" data-name="Path 206" d="M139.306,24.122h-6.18l-.875,3.474h-5.6L133.3,6.4h5.947l6.647,21.2h-5.713ZM138.2,19.529l-1.924-7.6-1.925,7.6Z" transform="translate(63.416 3.203)" fill="#fff"/>
  <path id="Path_207" data-name="Path 207" d="M140.135,27.6V6.4h9.1a10.748,10.748,0,0,1,3.848.53,4.307,4.307,0,0,1,2.158,1.943,6.883,6.883,0,0,1,.816,3.416,7.164,7.164,0,0,1-.642,3.062,5.413,5.413,0,0,1-1.748,2.061,5.926,5.926,0,0,1-1.924.824,4.975,4.975,0,0,1,1.4.766,8.946,8.946,0,0,1,.875,1.119,7.043,7.043,0,0,1,.758,1.3l2.623,6.125h-6.18L148.3,21.06a5.409,5.409,0,0,0-.992-1.649,1.881,1.881,0,0,0-1.342-.471h-.291v8.6Zm5.539-12.6h2.332a8.592,8.592,0,0,0,1.459-.294,1.341,1.341,0,0,0,.873-.648,2.186,2.186,0,0,0,.35-1.237,2.173,2.173,0,0,0-.524-1.59,2.942,2.942,0,0,0-2.041-.53h-2.449Z" transform="translate(70.165 3.203)" fill="#fff"/>
  <path id="Path_208" data-name="Path 208" d="M151.752,20.707l5.189-.412a5.313,5.313,0,0,0,.7,2.3,2.653,2.653,0,0,0,2.391,1.3,2.509,2.509,0,0,0,1.807-.648,2.148,2.148,0,0,0,.641-1.531,2.054,2.054,0,0,0-.582-1.472A7.043,7.043,0,0,0,159.1,19a11.315,11.315,0,0,1-5.131-2.591,5.493,5.493,0,0,1-1.516-4.063,6.157,6.157,0,0,1,.816-3.062,6.032,6.032,0,0,1,2.391-2.3,9.809,9.809,0,0,1,4.373-.824,7.918,7.918,0,0,1,5.188,1.531c1.225,1,1.867,2.591,2.1,4.829l-5.131.353a3.217,3.217,0,0,0-.875-2.061,2.607,2.607,0,0,0-1.807-.648,2.167,2.167,0,0,0-1.457.471,1.444,1.444,0,0,0-.467,1.178,1.065,1.065,0,0,0,.408.883,3.773,3.773,0,0,0,1.807.766,18.782,18.782,0,0,1,5.131,1.884A5.837,5.837,0,0,1,167.2,17.7a6.994,6.994,0,0,1,.7,3.121,7.687,7.687,0,0,1-.933,3.769,6.559,6.559,0,0,1-2.623,2.591,9.145,9.145,0,0,1-4.257.883c-3.031,0-5.072-.707-6.238-2.061A8.836,8.836,0,0,1,151.752,20.707Z" transform="translate(75.982 3.085)" fill="#fff"/>
  <path id="Path_209" data-name="Path 209" d="M163.718,6.4H169.2v7.42h5.947V6.4h5.481V27.6h-5.481V19H169.2v8.6h-5.481Z" transform="translate(81.973 3.203)" fill="#fff"/>
  <path id="Path_210" data-name="Path 210" d="M181.822,6.4h9.1A5.6,5.6,0,0,1,195.349,8.1a7.021,7.021,0,0,1,1.457,4.829,7.082,7.082,0,0,1-1.633,5.006,6.342,6.342,0,0,1-4.9,1.826H187.3v7.891h-5.481Zm5.481,9.069h1.342a3.117,3.117,0,0,0,2.215-.648,2.369,2.369,0,0,0,.642-1.708,2.531,2.531,0,0,0-.584-1.708,2.577,2.577,0,0,0-2.1-.707h-1.574v4.77Z" transform="translate(91.038 3.203)" fill="#fff"/>
  <path id="Path_211" data-name="Path 211" d="M204.691,6.4h5.481V19.058a13.979,13.979,0,0,1-.465,3.533,8.814,8.814,0,0,1-1.517,2.945,6.13,6.13,0,0,1-2.215,1.767,9.372,9.372,0,0,1-3.848.707,15.82,15.82,0,0,1-2.8-.236,5.787,5.787,0,0,1-2.565-.883,6.842,6.842,0,0,1-1.867-1.826,7.124,7.124,0,0,1-1.166-2.414,14.458,14.458,0,0,1-.524-3.592V6.4h5.481V19.352a4.157,4.157,0,0,0,.816,2.709,2.734,2.734,0,0,0,2.215,1,2.692,2.692,0,0,0,2.215-.942,4.158,4.158,0,0,0,.816-2.709V6.4Z" transform="translate(96.738 3.203)" fill="#fff"/>
  <path id="Path_212" data-name="Path 212" d="M206.376,6.4h10.262a4.98,4.98,0,0,1,3.906,1.531,5.239,5.239,0,0,1,1.342,3.769,5.469,5.469,0,0,1-.992,3.239,4.141,4.141,0,0,1-1.924,1.413,4.71,4.71,0,0,1,2.8,1.884,5.982,5.982,0,0,1,.875,3.357A6.819,6.819,0,0,1,222,24.534a4.663,4.663,0,0,1-1.748,2.061,6.211,6.211,0,0,1-2.1.707,24.382,24.382,0,0,1-2.449.294h-9.328Zm5.539,8.3h2.391a2.461,2.461,0,0,0,1.807-.53,2.118,2.118,0,0,0,.525-1.531,2.066,2.066,0,0,0-.525-1.472,2.4,2.4,0,0,0-1.748-.53h-2.391Zm0,8.362h2.8a2.585,2.585,0,0,0,1.982-.589,2.143,2.143,0,0,0,.582-1.59,2.008,2.008,0,0,0-.582-1.531,2.953,2.953,0,0,0-1.982-.589h-2.8Z" transform="translate(103.332 3.203)" fill="#fff"/>
  <path id="Path_213" data-name="Path 213" d="M218.653,6.4h5.481V22.355h8.512V27.6H218.653Z" transform="translate(109.479 3.203)" fill="#fff"/>
  <path id="Path_214" data-name="Path 214" d="M229.221,6.4H234.7V27.6h-5.481Z" transform="translate(114.771 3.203)" fill="#fff"/>
  <path id="Path_215" data-name="Path 215" d="M246.924,19.038l4.78,1.708a12.789,12.789,0,0,1-1.516,4.063,7.916,7.916,0,0,1-2.565,2.473,8.547,8.547,0,0,1-3.906.824,10.051,10.051,0,0,1-4.723-1,7.85,7.85,0,0,1-3.148-3.533,14.022,14.022,0,0,1-1.342-6.478c0-3.533.758-6.183,2.332-8.068a8.064,8.064,0,0,1,6.59-2.827,7.7,7.7,0,0,1,5.246,1.649,9.647,9.647,0,0,1,2.857,4.947l-4.84,1.3a6.022,6.022,0,0,0-.524-1.413,3.591,3.591,0,0,0-1.109-1.178,2.607,2.607,0,0,0-1.457-.412,3.119,3.119,0,0,0-2.857,1.767,8.6,8.6,0,0,0-.758,4.181c0,2.356.293,3.946.875,4.829a2.845,2.845,0,0,0,2.508,1.3,2.884,2.884,0,0,0,2.391-1.06A6.467,6.467,0,0,0,246.924,19.038Z" transform="translate(117.416 3.104)" fill="#fff"/>
  <path id="Path_216" data-name="Path 216" d="M251.521,20.707l5.189-.412a5.313,5.313,0,0,0,.7,2.3,2.656,2.656,0,0,0,2.391,1.3,2.509,2.509,0,0,0,1.807-.648,2.15,2.15,0,0,0,.642-1.531,2.056,2.056,0,0,0-.584-1.472,7.032,7.032,0,0,0-2.8-1.237,11.323,11.323,0,0,1-5.131-2.591,5.493,5.493,0,0,1-1.516-4.063,6.173,6.173,0,0,1,.816-3.062,6.042,6.042,0,0,1,2.391-2.3,9.813,9.813,0,0,1,4.373-.824,7.925,7.925,0,0,1,5.189,1.531c1.223,1,1.865,2.591,2.1,4.829l-5.131.353a3.217,3.217,0,0,0-.873-2.061,2.614,2.614,0,0,0-1.808-.648,2.167,2.167,0,0,0-1.457.471,1.444,1.444,0,0,0-.467,1.178,1.065,1.065,0,0,0,.408.883,3.773,3.773,0,0,0,1.807.766,18.782,18.782,0,0,1,5.131,1.884,5.831,5.831,0,0,1,2.275,2.356,7.013,7.013,0,0,1,.7,3.121,7.671,7.671,0,0,1-.933,3.769,6.559,6.559,0,0,1-2.623,2.591,9.138,9.138,0,0,1-4.256.883c-3.033,0-5.072-.707-6.238-2.061A9.214,9.214,0,0,1,251.521,20.707Z" transform="translate(125.936 3.085)" fill="#fff"/>
  <path id="Path_217" data-name="Path 217" d="M275.517,19.038l4.781,1.708a12.789,12.789,0,0,1-1.516,4.063,7.919,7.919,0,0,1-2.566,2.473,8.543,8.543,0,0,1-3.906.824,10.051,10.051,0,0,1-4.723-1,7.85,7.85,0,0,1-3.148-3.533,14.022,14.022,0,0,1-1.34-6.478c0-3.533.758-6.183,2.332-8.068A8.061,8.061,0,0,1,272.019,6.2a7.7,7.7,0,0,1,5.246,1.649,9.637,9.637,0,0,1,2.857,4.947l-4.838,1.3a6.082,6.082,0,0,0-.525-1.413,3.572,3.572,0,0,0-1.107-1.178,2.615,2.615,0,0,0-1.459-.412,3.117,3.117,0,0,0-2.856,1.767,8.578,8.578,0,0,0-.758,4.181c0,2.356.291,3.946.873,4.829a2.847,2.847,0,0,0,2.508,1.3,2.884,2.884,0,0,0,2.391-1.06A7.105,7.105,0,0,0,275.517,19.038Z" transform="translate(131.734 3.104)" fill="#fff"/>
  <path id="Path_218" data-name="Path 218" d="M275.8,6.4h5.481v7.42h5.947V6.4h5.481V27.6h-5.481V19h-5.947v8.6H275.8Z" transform="translate(138.094 3.203)" fill="#fff"/>
  <path id="Path_219" data-name="Path 219" d="M288.507,17.114c0-3.475.816-6.183,2.391-8.068A8.243,8.243,0,0,1,297.6,6.161a8.462,8.462,0,0,1,6.821,2.827c1.574,1.884,2.391,4.535,2.391,7.95a15.384,15.384,0,0,1-1.049,6.125,8.284,8.284,0,0,1-3.031,3.71,8.7,8.7,0,0,1-4.9,1.3,9.667,9.667,0,0,1-4.955-1.119,8.408,8.408,0,0,1-3.207-3.592A15.267,15.267,0,0,1,288.507,17.114Zm5.422.059a8.35,8.35,0,0,0,.992,4.593A3.111,3.111,0,0,0,297.6,23.18a3.231,3.231,0,0,0,2.74-1.354c.641-.942.99-2.532.99-4.947a7.605,7.605,0,0,0-.99-4.358,3.347,3.347,0,0,0-5.422.059A8.081,8.081,0,0,0,293.929,17.173Z" transform="translate(144.455 3.085)" fill="#fff"/>
  <path id="Path_220" data-name="Path 220" d="M301.678,17.114c0-3.475.816-6.183,2.389-8.068a8.246,8.246,0,0,1,6.705-2.886,8.465,8.465,0,0,1,6.822,2.827c1.574,1.884,2.391,4.535,2.391,7.95a15.355,15.355,0,0,1-1.051,6.125,8.275,8.275,0,0,1-3.031,3.71,8.692,8.692,0,0,1-4.9,1.3,9.672,9.672,0,0,1-4.957-1.119,8.415,8.415,0,0,1-3.206-3.592A15.268,15.268,0,0,1,301.678,17.114Zm5.481.059a8.366,8.366,0,0,0,.99,4.593,3.111,3.111,0,0,0,2.682,1.413,3.231,3.231,0,0,0,2.74-1.354c.642-.942.992-2.532.992-4.947a7.592,7.592,0,0,0-.992-4.358,3.347,3.347,0,0,0-5.422.059C307.45,13.463,307.159,14.994,307.159,17.173Z" transform="translate(151.05 3.085)" fill="#fff"/>
  <path id="Path_221" data-name="Path 221" d="M315.314,6.4h5.481V22.355h8.513V27.6H315.314Z" transform="translate(157.878 3.203)" fill="#fff"/>
  <path id="Path_222" data-name="Path 222" d="M85.96,27.39h1.108v4.829a2.364,2.364,0,0,1-.408,1.413,1.96,1.96,0,0,1-1.049.883,3.785,3.785,0,0,1-1.458.294,4.023,4.023,0,0,1-1.458-.294,2.5,2.5,0,0,1-1.049-.883,2.686,2.686,0,0,1-.408-1.413V27.39h1.108v4.829a1.426,1.426,0,0,0,.875,1.413,2.319,2.319,0,0,0,.875.177,1.93,1.93,0,0,0,.874-.177,1.426,1.426,0,0,0,.875-1.413V27.39Z" transform="translate(40.676 13.714)" fill="#fff"/>
  <path id="Path_223" data-name="Path 223" d="M91.963,27.39v7.3h-.991L87.3,29.334H87.24v5.359H86.133v-7.3h.991L90.8,32.749h.058V27.39Z" transform="translate(43.127 13.714)" fill="#fff"/>
  <path id="Path_224" data-name="Path 224" d="M93.4,34.693H91.067v-7.3h2.39a3.429,3.429,0,0,1,1.807.412,2.968,2.968,0,0,1,1.166,1.237,3.985,3.985,0,0,1,.408,1.943,3.984,3.984,0,0,1-.408,1.943,2.968,2.968,0,0,1-1.166,1.237A3.053,3.053,0,0,1,93.4,34.693Zm-1.224-.942H93.34a2.364,2.364,0,0,0,1.866-.707,2.937,2.937,0,0,0,.641-2,2.926,2.926,0,0,0-.583-2,2.235,2.235,0,0,0-1.807-.707H92.233v5.418Z" transform="translate(45.597 13.714)" fill="#fff"/>
  <path id="Path_225" data-name="Path 225" d="M95.845,34.693v-7.3h4.548v.942h-3.44v2.238h3.207v.942H96.953v2.238h3.5v.942Z" transform="translate(47.99 13.714)" fill="#fff"/>
  <path id="Path_226" data-name="Path 226" d="M99.847,34.693v-7.3h2.565a3.1,3.1,0,0,1,1.4.294,1.857,1.857,0,0,1,.816.824,2.714,2.714,0,0,1,.291,1.178,2.547,2.547,0,0,1-.35,1.3,1.649,1.649,0,0,1-.992.766l1.574,2.945h-1.223l-1.459-2.768h-1.516v2.768Zm1.049-3.71h1.4a1.632,1.632,0,0,0,1.166-.353,1.252,1.252,0,0,0,.35-.942,1.4,1.4,0,0,0-.35-1,1.632,1.632,0,0,0-1.166-.353h-1.342v2.65Z" transform="translate(49.993 13.714)" fill="#fff"/>
  <path id="Path_227" data-name="Path 227" d="M105.6,28.333V27.39h5.6v.942H108.92v6.36h-1.108v-6.36Z" transform="translate(52.872 13.714)" fill="#fff"/>
  <path id="Path_228" data-name="Path 228" d="M110.142,34.693v-7.3h1.109v3.18h3.614V27.39h1.109v7.3h-1.109v-3.18h-3.614v3.18Z" transform="translate(55.148 13.714)" fill="#fff"/>
  <path id="Path_229" data-name="Path 229" d="M115.038,34.693v-7.3h4.547v.942h-3.44v2.238h3.207v.942h-3.207v2.238h3.5v.942Z" transform="translate(57.599 13.714)" fill="#fff"/>
  <path id="Path_230" data-name="Path 230" d="M120.788,27.39h1.34l2.274,5.653h.059l2.274-5.653h1.342v7.3h-1.049V29.452h-.059l-2.1,5.241h-.875l-2.1-5.241h-.059v5.3h-1.049Z" transform="translate(60.478 13.714)" fill="#fff"/>
  <path id="Path_231" data-name="Path 231" d="M127.626,34.693H126.46l2.565-7.3h1.283l2.565,7.3h-1.166l-.641-1.943h-2.8Zm.933-2.886h2.157l-1.049-3.121Z" transform="translate(63.318 13.714)" fill="#fff"/>
  <path id="Path_232" data-name="Path 232" d="M137.263,27.39v7.3h-.992L132.6,29.334h-.059v5.359h-1.108v-7.3h.99l3.674,5.359h.059V27.39Z" transform="translate(65.808 13.714)" fill="#fff"/>
  <path id="Path_233" data-name="Path 233" d="M137.183,34.693h-1.166l2.566-7.3h1.282l2.566,7.3h-1.166l-.642-1.943h-2.8Zm.933-2.886h2.156l-1.049-3.121h-.059Z" transform="translate(68.104 13.714)" fill="#fff"/>
  <path id="Path_234" data-name="Path 234" d="M145.751,29.746a1.751,1.751,0,0,0-.7-1,1.955,1.955,0,0,0-1.166-.353,2.392,2.392,0,0,0-1.108.294,2.024,2.024,0,0,0-.758.942,3.868,3.868,0,0,0,0,2.945,2.462,2.462,0,0,0,.758.942,1.849,1.849,0,0,0,1.108.294,1.882,1.882,0,0,0,1.4-.53,1.921,1.921,0,0,0,.524-1.413H144v-.883h2.857v.824a2.943,2.943,0,0,1-.408,1.59,2.3,2.3,0,0,1-1.05,1.06,3.438,3.438,0,0,1-1.574.353,3.131,3.131,0,0,1-2.856-1.767,5.115,5.115,0,0,1,0-4,3.13,3.13,0,0,1,2.8-1.767,3.494,3.494,0,0,1,1.4.294,2.85,2.85,0,0,1,1.049.824,2.35,2.35,0,0,1,.525,1.237h-.992Z" transform="translate(70.38 13.655)" fill="#fff"/>
  <path id="Path_235" data-name="Path 235" d="M145.73,34.693v-7.3h4.547v.942h-3.44v2.238h3.207v.942h-3.207v2.238h3.5v.942Z" transform="translate(72.967 13.714)" fill="#fff"/>
  <path id="Path_236" data-name="Path 236" d="M149.693,27.39h1.34l2.275,5.653h.057l2.275-5.653h1.34v7.3h-1.049V29.452l-2.1,5.241h-.875l-2.1-5.241H150.8v5.3h-1.049V27.39Z" transform="translate(74.951 13.714)" fill="#fff"/>
  <path id="Path_237" data-name="Path 237" d="M155.753,34.693v-7.3H160.3v.942h-3.44v2.238h3.205v.942h-3.205v2.238h3.5v.942Z" transform="translate(77.985 13.714)" fill="#fff"/>
  <path id="Path_238" data-name="Path 238" d="M165.546,27.39v7.3h-.99l-3.674-5.359h-.059v5.359h-1.108v-7.3h.992l3.672,5.359h.059V27.39Z" transform="translate(79.97 13.714)" fill="#fff"/>
  <path id="Path_239" data-name="Path 239" d="M164.417,28.333V27.39h5.6v.942h-2.274v6.36h-1.108v-6.36Z" transform="translate(82.323 13.714)" fill="#fff"/>
  <path id="Path_240" data-name="Path 240" d="M177.047,31.081a4.394,4.394,0,0,1-.408,2,2.8,2.8,0,0,1-1.166,1.3,3.268,3.268,0,0,1-3.381,0,3.148,3.148,0,0,1-1.166-1.3,4.234,4.234,0,0,1-.408-2,4.234,4.234,0,0,1,.408-2,3.116,3.116,0,0,1,1.166-1.3,3.164,3.164,0,0,1,1.691-.471,3.314,3.314,0,0,1,1.69.471,2.8,2.8,0,0,1,1.166,1.3A4.234,4.234,0,0,1,177.047,31.081Zm-1.049,0a3.475,3.475,0,0,0-.291-1.472,2.462,2.462,0,0,0-.758-.942,1.857,1.857,0,0,0-1.109-.294,2.392,2.392,0,0,0-1.108.294,2.024,2.024,0,0,0-.758.942,3.868,3.868,0,0,0,0,2.945,2.46,2.46,0,0,0,.758.942,1.849,1.849,0,0,0,1.108.294,2.4,2.4,0,0,0,1.109-.294,2.023,2.023,0,0,0,.758-.942A3.477,3.477,0,0,0,176,31.081Z" transform="translate(85.378 13.675)" fill="#fff"/>
  <path id="Path_241" data-name="Path 241" d="M175.8,34.693v-7.3h4.489v.942h-3.381v2.238H180v.942h-3.09v3.18Z" transform="translate(88.023 13.714)" fill="#fff"/>
  <path id="Path_242" data-name="Path 242" d="M185.437,29.353a.976.976,0,0,0-.467-.766,2,2,0,0,0-1.049-.294,1.715,1.715,0,0,0-1.049.294,1.007,1.007,0,0,0-.408.766.757.757,0,0,0,.233.589,1.652,1.652,0,0,0,.525.353,2.2,2.2,0,0,0,.582.177l.7.177a3.277,3.277,0,0,1,.7.236,4.4,4.4,0,0,1,.7.412,2.512,2.512,0,0,1,.524.589,1.891,1.891,0,0,1,.176.824,1.909,1.909,0,0,1-1.225,1.884,3.571,3.571,0,0,1-1.457.294A2.8,2.8,0,0,1,182,34.3a1.907,1.907,0,0,1-.758-1.59h1.108a1.015,1.015,0,0,0,.525.883,2.214,2.214,0,0,0,1.107.294,2.445,2.445,0,0,0,1.166-.294,1.123,1.123,0,0,0,.467-.883.723.723,0,0,0-.176-.53,2.058,2.058,0,0,0-1.166-.589l-.875-.236a3.913,3.913,0,0,1-1.4-.707,1.529,1.529,0,0,1-.525-1.237,1.957,1.957,0,0,1,.35-1.119,2.329,2.329,0,0,1,.933-.707,3.112,3.112,0,0,1,1.283-.236,2.939,2.939,0,0,1,1.282.236,2.583,2.583,0,0,1,.875.707,1.658,1.658,0,0,1,.35,1.06Z" transform="translate(90.747 13.695)" fill="#fff"/>
  <path id="Path_243" data-name="Path 243" d="M185.669,34.693v-7.3h1.108v3.18h3.615V27.39H191.5v7.3h-1.108v-3.18h-3.615v3.18Z" transform="translate(92.964 13.714)" fill="#fff"/>
  <path id="Path_244" data-name="Path 244" d="M190.564,34.693v-7.3h2.565a3.1,3.1,0,0,1,1.4.294,1.857,1.857,0,0,1,.816.824,2.714,2.714,0,0,1,.291,1.178,2.547,2.547,0,0,1-.35,1.3,1.905,1.905,0,0,1-.992.766l1.574,2.945h-1.223l-1.459-2.768h-1.516v2.768Zm1.049-3.71h1.4a1.633,1.633,0,0,0,1.166-.353,1.252,1.252,0,0,0,.35-.942,1.4,1.4,0,0,0-.35-1,1.633,1.633,0,0,0-1.166-.353h-1.342v2.65Z" transform="translate(95.415 13.714)" fill="#fff"/>
  <path id="Path_245" data-name="Path 245" d="M195.907,27.39v7.3H194.8v-7.3Z" transform="translate(97.536 13.714)" fill="#fff"/>
  <path id="Path_246" data-name="Path 246" d="M202.376,29.353a.976.976,0,0,0-.467-.766,2,2,0,0,0-1.049-.294,1.716,1.716,0,0,0-1.049.294,1.007,1.007,0,0,0-.408.766.757.757,0,0,0,.233.589,1.652,1.652,0,0,0,.525.353,2.2,2.2,0,0,0,.582.177l.7.177a3.277,3.277,0,0,1,.7.236,4.408,4.408,0,0,1,.7.412,2.512,2.512,0,0,1,.524.589,1.891,1.891,0,0,1,.176.824,1.909,1.909,0,0,1-1.225,1.884,3.571,3.571,0,0,1-1.457.294,2.8,2.8,0,0,1-1.924-.589,1.907,1.907,0,0,1-.758-1.59h1.108a1.015,1.015,0,0,0,.525.883,2.214,2.214,0,0,0,1.108.294,2.445,2.445,0,0,0,1.166-.294,1.123,1.123,0,0,0,.467-.883.723.723,0,0,0-.176-.53,2.058,2.058,0,0,0-1.166-.589l-.875-.236a3.913,3.913,0,0,1-1.4-.707,1.529,1.529,0,0,1-.525-1.237,1.957,1.957,0,0,1,.35-1.119,2.329,2.329,0,0,1,.933-.707,3.112,3.112,0,0,1,1.283-.236,2.938,2.938,0,0,1,1.282.236,2.583,2.583,0,0,1,.875.707,1.658,1.658,0,0,1,.35,1.06Z" transform="translate(99.228 13.695)" fill="#fff"/>
  <path id="Path_247" data-name="Path 247" d="M203.346,34.693H202.18l2.566-7.3h1.283l2.565,7.3h-1.166l-.641-1.943h-2.8Zm.992-2.886h2.156l-1.049-3.121h-.059Z" transform="translate(101.231 13.714)" fill="#fff"/>
  <path id="Path_248" data-name="Path 248" d="M212.983,27.39v7.3h-.99l-3.674-5.359h-.059v5.359h-1.108v-7.3h.992l3.672,5.359h.059V27.39Z" transform="translate(103.721 13.714)" fill="#fff"/>
  <path id="Path_249" data-name="Path 249" d="M212.9,34.693h-1.166l2.565-7.3h1.283l2.565,7.3h-1.166l-.641-1.943h-2.8Zm.99-2.886h2.158L215,28.686h-.057Z" transform="translate(106.017 13.714)" fill="#fff"/>
  <path id="Path_250" data-name="Path 250" d="M215.934,28.333V27.39h5.6v.942h-2.274v6.36h-1.108v-6.36Z" transform="translate(108.118 13.714)" fill="#fff"/>
  <path id="Path_251" data-name="Path 251" d="M220.674,34.693h-1.166l2.565-7.3h1.283l2.566,7.3h-1.168l-.641-1.943h-2.8Zm.99-2.886h2.158l-1.049-3.121h-.059Z" transform="translate(109.908 13.714)" fill="#fff"/>
  <path id="Path_252" data-name="Path 252" d="M230.35,27.39v7.3h-.992l-3.672-5.359h-.059v5.359H224.52v-7.3h.99l3.674,5.359h.059V27.39Z" transform="translate(112.417 13.714)" fill="#fff"/>
  <path id="Path_253" data-name="Path 253" d="M233.534,34.693H231.2v-7.3h2.391a3.429,3.429,0,0,1,1.807.412,3.381,3.381,0,0,1,1.166,1.237,3.973,3.973,0,0,1,.408,1.943,3.973,3.973,0,0,1-.408,1.943,2.963,2.963,0,0,1-1.166,1.237A3.3,3.3,0,0,1,233.534,34.693Zm-1.283-.942h1.166a2.366,2.366,0,0,0,1.867-.707,2.926,2.926,0,0,0,.582-2,2.926,2.926,0,0,0-.582-2,2.237,2.237,0,0,0-1.808-.707h-1.225Z" transform="translate(115.763 13.714)" fill="#fff"/>
  <path id="Path_254" data-name="Path 254" d="M235.942,34.693v-7.3h1.107v3.18h3.615V27.39h1.108v7.3h-1.108v-3.18h-3.615v3.18Z" transform="translate(118.136 13.714)" fill="#fff"/>
  <path id="Path_255" data-name="Path 255" d="M241.653,34.693h-1.166l2.566-7.3h1.283l2.565,7.3h-1.166l-.641-1.943h-2.8Zm.992-2.886H244.8l-1.049-3.121h-.059Z" transform="translate(120.412 13.714)" fill="#fff"/>
  <path id="Path_256" data-name="Path 256" d="M245.5,34.693v-7.3h2.566a3.1,3.1,0,0,1,1.4.294,1.857,1.857,0,0,1,.816.824,2.693,2.693,0,0,1,.291,1.178,2.532,2.532,0,0,1-.35,1.3,1.9,1.9,0,0,1-.99.766l1.574,2.945h-1.225l-1.459-2.768h-1.516v2.768Zm1.051-3.71h1.4a1.628,1.628,0,0,0,1.166-.353,1.253,1.253,0,0,0,.35-.942,1.4,1.4,0,0,0-.35-1,1.628,1.628,0,0,0-1.166-.353h-1.342v2.65Z" transform="translate(122.921 13.714)" fill="#fff"/>
  <path id="Path_257" data-name="Path 257" d="M250.55,34.693h-1.166l2.566-7.3h1.282l2.566,7.3h-1.166l-.642-1.943h-2.8Zm.933-2.886h2.156l-1.049-3.121h-.059Z" transform="translate(124.866 13.714)" fill="#fff"/>
  <path id="Path_258" data-name="Path 258" d="M254.357,27.39H255.7l2.274,5.653h.059L260.3,27.39h1.342v7.3H260.6V29.452h-.059l-2.1,5.241h-.875l-2.1-5.241h-.059v5.3h-1.049Z" transform="translate(127.356 13.714)" fill="#fff"/>
  <path id="Path_259" data-name="Path 259" d="M266.169,29.353a.972.972,0,0,0-.467-.766,2,2,0,0,0-1.049-.294,1.716,1.716,0,0,0-1.049.294,1.007,1.007,0,0,0-.408.766.762.762,0,0,0,.233.589,1.669,1.669,0,0,0,.525.353,2.2,2.2,0,0,0,.582.177l.7.177a3.293,3.293,0,0,1,.7.236,4.34,4.34,0,0,1,.7.412,2.552,2.552,0,0,1,.525.589,1.912,1.912,0,0,1,.174.824,1.909,1.909,0,0,1-1.225,1.884,3.566,3.566,0,0,1-1.457.294,2.8,2.8,0,0,1-1.924-.589,1.907,1.907,0,0,1-.758-1.59h1.108a1.018,1.018,0,0,0,.525.883,2.214,2.214,0,0,0,1.108.294,2.445,2.445,0,0,0,1.166-.294,1.123,1.123,0,0,0,.467-.883.723.723,0,0,0-.176-.53,3.147,3.147,0,0,0-.467-.353,3.23,3.23,0,0,0-.7-.236l-.875-.236a3.913,3.913,0,0,1-1.4-.707,1.529,1.529,0,0,1-.525-1.237,1.957,1.957,0,0,1,.35-1.119,2.329,2.329,0,0,1,.933-.707,3.112,3.112,0,0,1,1.283-.236,2.945,2.945,0,0,1,1.283.236,2.578,2.578,0,0,1,.873.707,1.649,1.649,0,0,1,.35,1.06Z" transform="translate(131.169 13.695)" fill="#fff"/>
  <path id="Path_260" data-name="Path 260" d="M267.179,34.693h-1.166l2.565-7.3h1.283l2.565,7.3h-1.166l-.641-1.943h-2.8Zm.99-2.886h2.156l-1.049-3.121h-.059Z" transform="translate(133.193 13.714)" fill="#fff"/>
  <path id="Path_261" data-name="Path 261" d="M270.985,34.693v-7.3h2.625a2.78,2.78,0,0,1,1.282.236,1.766,1.766,0,0,1,.758.707,1.813,1.813,0,0,1,.234,1,1.451,1.451,0,0,1-.35,1.06,1.6,1.6,0,0,1-.875.471v.059a1.644,1.644,0,0,1,.7.236,1.862,1.862,0,0,1,.584.589,1.624,1.624,0,0,1,.233.942,1.7,1.7,0,0,1-1.049,1.708,3.16,3.16,0,0,1-1.4.235h-2.74Zm1.109-4.122h1.457a1.6,1.6,0,0,0,.932-.294,1.073,1.073,0,0,0,.351-.824,1.245,1.245,0,0,0-.293-.766,1.469,1.469,0,0,0-.932-.295h-1.459v2.179Zm0,3.18h1.574a1.792,1.792,0,0,0,1.107-.294.955.955,0,0,0,.35-.766,1.065,1.065,0,0,0-.408-.883,1.419,1.419,0,0,0-1.049-.353h-1.633v2.3Z" transform="translate(135.682 13.714)" fill="#fff"/>
  <path id="Path_262" data-name="Path 262" d="M275.337,34.693v-7.3h1.107v3.18h3.615V27.39h1.107v7.3H280.06v-3.18h-3.615v3.18Z" transform="translate(137.861 13.714)" fill="#fff"/>
  <path id="Path_263" data-name="Path 263" d="M281.009,34.693h-1.166l2.566-7.3h1.283l2.565,7.3h-1.166l-.641-1.943h-2.8ZM282,31.807h2.156l-1.049-3.121h-.059Z" transform="translate(140.117 13.714)" fill="#fff"/>
  <path id="Path_264" data-name="Path 264" d="M286.759,31.768a8.47,8.47,0,0,1,.35-2.473,8.37,8.37,0,0,1,.992-2.061h.99a4.026,4.026,0,0,0-.641,1.237,12.349,12.349,0,0,0-.467,1.59,8.392,8.392,0,0,0,0,3.416,6.25,6.25,0,0,0,.467,1.59,6.108,6.108,0,0,0,.641,1.237h-.99a6.707,6.707,0,0,1-.992-2.061A8.468,8.468,0,0,1,286.759,31.768Z" transform="translate(143.58 13.636)" fill="#fff"/>
  <path id="Path_265" data-name="Path 265" d="M289.09,34.693v-7.3h2.565a3.1,3.1,0,0,1,1.4.294,1.857,1.857,0,0,1,.816.824,2.714,2.714,0,0,1,.291,1.178,2.547,2.547,0,0,1-.35,1.3,1.9,1.9,0,0,1-.992.766l1.574,2.945h-1.223l-1.459-2.768H290.2v2.768Zm1.108-3.71h1.4a1.632,1.632,0,0,0,1.166-.353,1.253,1.253,0,0,0,.35-.942,1.4,1.4,0,0,0-.35-1,1.632,1.632,0,0,0-1.166-.353h-1.4Z" transform="translate(144.747 13.714)" fill="#fff"/>
  <path id="Path_266" data-name="Path 266" d="M295.657,34.221a2.744,2.744,0,0,1-1.4-.353,1.841,1.841,0,0,1-.875-1,3.017,3.017,0,0,1-.291-1.472,3.879,3.879,0,0,1,.291-1.472,2.919,2.919,0,0,1,.875-1,2.4,2.4,0,0,1,1.34-.353,2.633,2.633,0,0,1,1.166.294,2.111,2.111,0,0,1,.875.883,3.212,3.212,0,0,1,.35,1.59v.353h-3.848a1.692,1.692,0,0,0,.467,1.237,1.7,1.7,0,0,0,1.865.236,1.18,1.18,0,0,0,.467-.589l.99.177a1.579,1.579,0,0,1-.758,1.06A3.053,3.053,0,0,1,295.657,34.221Zm-1.516-3.357h2.8a1.658,1.658,0,0,0-.35-1.06,1.2,1.2,0,0,0-.992-.412,1.6,1.6,0,0,0-.758.177,1.156,1.156,0,0,0-.525.53A2.067,2.067,0,0,0,294.141,30.864Z" transform="translate(146.751 14.304)" fill="#fff"/>
  <path id="Path_267" data-name="Path 267" d="M299.483,36.223a2.755,2.755,0,0,1-1.516-.353,1.828,1.828,0,0,1-.758-.883l.933-.353a1.285,1.285,0,0,0,.233.295,1.058,1.058,0,0,0,.408.294,2.161,2.161,0,0,0,.7.118,1.66,1.66,0,0,0,.992-.294,1.193,1.193,0,0,0,.408-.942v-1.06h-.059c-.058.118-.176.236-.291.412a.914.914,0,0,1-.467.353,2.435,2.435,0,0,1-.816.177,2.632,2.632,0,0,1-1.166-.294,2.379,2.379,0,0,1-.816-.883,3.868,3.868,0,0,1,0-2.945,2.142,2.142,0,0,1,.816-.942,2.087,2.087,0,0,1,1.166-.353,1.682,1.682,0,0,1,.816.177,1.091,1.091,0,0,1,.467.412c.116.177.233.294.291.412h.059v-.883h1.049V34.28a1.713,1.713,0,0,1-.35,1.119,1.9,1.9,0,0,1-.875.648A3.839,3.839,0,0,1,299.483,36.223Zm0-3.121a1.279,1.279,0,0,0,1.05-.471,2.135,2.135,0,0,0,.35-1.3,2.463,2.463,0,0,0-.35-1.354,1.176,1.176,0,0,0-1.05-.53,1.331,1.331,0,0,0-.816.236,1.662,1.662,0,0,0-.465.648,2.455,2.455,0,0,0-.176.942,2.261,2.261,0,0,0,.35,1.3A1.152,1.152,0,0,0,299.483,33.1Z" transform="translate(148.696 14.304)" fill="#fff"/>
  <path id="Path_268" data-name="Path 268" d="M303.33,34.81a2.086,2.086,0,0,1-1.166-.353,2.369,2.369,0,0,1-.816-1,4.172,4.172,0,0,1,0-3.062,1.864,1.864,0,0,1,.816-.942,2.086,2.086,0,0,1,1.166-.353,1.678,1.678,0,0,1,.816.177,1.08,1.08,0,0,1,.467.412,2.581,2.581,0,0,0,.291.412h.059V27.39h1.049v7.3h-1.049v-.824h-.117c-.057.118-.174.236-.291.412a1.576,1.576,0,0,1-.467.412A2.555,2.555,0,0,1,303.33,34.81Zm.234-.942a1.173,1.173,0,0,0,1.049-.53,2.536,2.536,0,0,0,.35-1.413,2.331,2.331,0,0,0-.35-1.354,1.173,1.173,0,0,0-1.049-.53,1.325,1.325,0,0,0-.816.236,1.666,1.666,0,0,0-.467.648,2.552,2.552,0,0,0-.176,1,2.766,2.766,0,0,0,.176,1,2.116,2.116,0,0,0,.467.707A1.131,1.131,0,0,0,303.564,33.868Z" transform="translate(150.739 13.714)" fill="#fff"/>
  <path id="Path_269" data-name="Path 269" d="M306.049,32.787a.709.709,0,0,1-.525-.236.644.644,0,0,1-.233-.53.539.539,0,0,1,.233-.471.737.737,0,0,1,.525-.235.628.628,0,0,1,.524.235.729.729,0,0,1,.234.471.721.721,0,0,1-.234.53A.707.707,0,0,1,306.049,32.787Z" transform="translate(152.859 15.679)" fill="#fff"/>
  <path id="Path_270" data-name="Path 270" d="M309.332,31.768a7.81,7.81,0,0,1-1.34,4.535H307a4.024,4.024,0,0,0,.642-1.237,12.594,12.594,0,0,0,.465-1.59,8.392,8.392,0,0,0,0-3.416,6.309,6.309,0,0,0-.465-1.59A6.1,6.1,0,0,0,307,27.234h.992a6.7,6.7,0,0,1,.99,2.061A8.143,8.143,0,0,1,309.332,31.768Z" transform="translate(153.715 13.636)" fill="#fff"/>
  <path id="Path_271" data-name="Path 271" d="M112.163,36.73h1.34l2.274,5.653h.059l2.274-5.653h1.342v7.3H118.4v-5.3h-.059l-2.1,5.241h-.875l-2.1-5.241h-.059v5.3h-1.049Z" transform="translate(56.16 18.391)" fill="#fff"/>
  <path id="Path_272" data-name="Path 272" d="M119,43.993h-1.166l2.565-7.3h1.283l2.566,7.3h-1.166l-.642-1.943h-2.8Zm.99-2.827h2.158L121.1,38.045h-.059Z" transform="translate(59 18.371)" fill="#fff"/>
  <path id="Path_273" data-name="Path 273" d="M128.7,36.73v7.3H127.7l-3.672-5.359h-.117v5.359h-1.108v-7.3h.99l3.674,5.359h.059V36.73Z" transform="translate(61.49 18.391)" fill="#fff"/>
  <path id="Path_274" data-name="Path 274" d="M130.113,43.973h-2.332V36.73h2.391a3.429,3.429,0,0,1,1.807.412,2.963,2.963,0,0,1,1.166,1.237,4.83,4.83,0,0,1,0,3.887,2.963,2.963,0,0,1-1.166,1.237A3.273,3.273,0,0,1,130.113,43.973Zm-1.283-.942H130a2.363,2.363,0,0,0,1.865-.707,3.577,3.577,0,0,0,.059-4,2.234,2.234,0,0,0-1.807-.707h-1.225v5.418Z" transform="translate(63.98 18.391)" fill="#fff"/>
  <path id="Path_275" data-name="Path 275" d="M133.629,36.73v7.3h-1.108v-7.3Z" transform="translate(66.353 18.391)" fill="#fff"/>
  <path id="Path_276" data-name="Path 276" d="M134.308,43.973V36.73h2.565a3.1,3.1,0,0,1,1.4.294,1.857,1.857,0,0,1,.816.824,2.714,2.714,0,0,1,.291,1.178,2.546,2.546,0,0,1-.35,1.3,1.653,1.653,0,0,1-.992.766l1.574,2.944h-1.225l-1.457-2.768h-1.516v2.768h-1.108Zm1.108-3.71h1.4a1.628,1.628,0,0,0,1.166-.353,1.247,1.247,0,0,0,.35-.942,1.39,1.39,0,0,0-.35-1,1.627,1.627,0,0,0-1.166-.353h-1.34v2.65Z" transform="translate(67.248 18.391)" fill="#fff"/>
  <path id="Path_277" data-name="Path 277" d="M140.33,36.73h1.34l2.274,5.653H144l2.274-5.653h1.342v7.3h-.99v-5.3h-.059l-2.1,5.241h-.875l-2.1-5.241h-.117v5.3H140.33Z" transform="translate(70.263 18.391)" fill="#fff"/>
  <path id="Path_278" data-name="Path 278" d="M147.168,43.993H146l2.565-7.3h1.283l2.565,7.3h-1.166l-.641-1.943h-2.8Zm.99-2.827h2.158l-1.049-3.121h-.059Z" transform="translate(73.103 18.371)" fill="#fff"/>
  <path id="Path_279" data-name="Path 279" d="M151.014,43.973V36.73h2.565a3.1,3.1,0,0,1,1.4.294,1.846,1.846,0,0,1,.815.824,2.694,2.694,0,0,1,.293,1.178,2.546,2.546,0,0,1-.35,1.3,1.653,1.653,0,0,1-.992.766l1.574,2.944h-1.225l-1.457-2.768h-1.516v2.768h-1.107Zm1.049-3.71h1.4a1.628,1.628,0,0,0,1.166-.353,1.248,1.248,0,0,0,.351-.942,1.39,1.39,0,0,0-.351-1,1.627,1.627,0,0,0-1.166-.353h-1.34v2.65Z" transform="translate(75.613 18.391)" fill="#fff"/>
  <path id="Path_280" data-name="Path 280" d="M160.243,39.086a1.758,1.758,0,0,0-.7-1,1.959,1.959,0,0,0-1.166-.353,2.4,2.4,0,0,0-1.109.294,2.023,2.023,0,0,0-.758.942,3.868,3.868,0,0,0,0,2.945,2.462,2.462,0,0,0,.758.942,1.857,1.857,0,0,0,1.109.294,1.88,1.88,0,0,0,1.4-.53,1.922,1.922,0,0,0,.525-1.413h-1.808v-.883h2.857v.824a2.943,2.943,0,0,1-.408,1.59,2.294,2.294,0,0,1-1.049,1.06,3.445,3.445,0,0,1-1.574.353,3.131,3.131,0,0,1-2.857-1.767,5.115,5.115,0,0,1,0-4,2.8,2.8,0,0,1,1.166-1.3,3.111,3.111,0,0,1,1.633-.471,3.489,3.489,0,0,1,1.4.294,2.864,2.864,0,0,1,1.051.824,2.359,2.359,0,0,1,.524,1.237h-.99Z" transform="translate(77.635 18.332)" fill="#fff"/>
  <path id="Path_281" data-name="Path 281" d="M161.562,40.889l-.059.412q-.088.442-.174.883c-.059.294-.176.589-.234.883-.116.294-.174.471-.233.648H160.1c.059-.177.059-.353.116-.589s.117-.53.176-.824a5.185,5.185,0,0,0,.117-.942l.059-.412h.99Z" transform="translate(80.164 20.473)" fill="#fff"/>
  <path id="Path_282" data-name="Path 282" d="M163.757,43.973V36.73h1.108V40.2h.117l3.031-3.475h1.34l-2.914,3.3,2.914,4h-1.282l-2.332-3.239-.875,1v2.238h-1.108Z" transform="translate(81.993 18.391)" fill="#fff"/>
  <path id="Path_283" data-name="Path 283" d="M172.831,36.73h1.107v4.829a2.367,2.367,0,0,1-.408,1.413,1.955,1.955,0,0,1-1.049.883,3.79,3.79,0,0,1-1.457.294,4.03,4.03,0,0,1-1.459-.294,2.5,2.5,0,0,1-1.049-.883,2.691,2.691,0,0,1-.408-1.413V36.73h1.108V41.5a1.429,1.429,0,0,0,.875,1.413,2.323,2.323,0,0,0,.875.177,1.937,1.937,0,0,0,.875-.177,1.425,1.425,0,0,0,.873-1.413V36.73Z" transform="translate(84.172 18.391)" fill="#fff"/>
  <path id="Path_284" data-name="Path 284" d="M178.872,36.73v7.3h-.99l-3.674-5.359h-.059v5.359h-1.107v-7.3h.992l3.672,5.359h.059V36.73Z" transform="translate(86.642 18.391)" fill="#fff"/>
  <path id="Path_285" data-name="Path 285" d="M180.911,36.73h1.107v5.182a2.194,2.194,0,0,1-.582,1.649,2.1,2.1,0,0,1-1.574.589,2.345,2.345,0,0,1-1.108-.235,1.668,1.668,0,0,1-.759-.648,2.056,2.056,0,0,1-.291-1.06h1.108a.979.979,0,0,0,.293.707,1.1,1.1,0,0,0,.758.294,1.056,1.056,0,0,0,.816-.353,1.513,1.513,0,0,0,.291-.942V36.73Z" transform="translate(88.976 18.391)" fill="#fff"/>
  <path id="Path_286" data-name="Path 286" d="M181.628,43.973V36.73h2.566a3.1,3.1,0,0,1,1.4.294,2.211,2.211,0,0,1,.816.824,2.528,2.528,0,0,1,0,2.356,1.856,1.856,0,0,1-.816.824,2.477,2.477,0,0,1-1.4.294h-1.459v2.532h-1.108Zm1.049-3.474h1.4a1.415,1.415,0,0,0,1.166-.412,1.5,1.5,0,0,0,.35-1,1.4,1.4,0,0,0-.35-1,1.415,1.415,0,0,0-1.166-.412h-1.342V40.5Z" transform="translate(90.941 18.391)" fill="#fff"/>
  <path id="Path_287" data-name="Path 287" d="M190.508,36.73h1.108v4.829a2.357,2.357,0,0,1-.408,1.413,1.955,1.955,0,0,1-1.049.883,3.789,3.789,0,0,1-1.457.294,4.016,4.016,0,0,1-1.457-.294,2.5,2.5,0,0,1-1.05-.883,2.691,2.691,0,0,1-.408-1.413V36.73h1.108V41.5a1.429,1.429,0,0,0,.875,1.413,2.323,2.323,0,0,0,.875.177,1.937,1.937,0,0,0,.875-.177,1.823,1.823,0,0,0,.641-.53,1.426,1.426,0,0,0,.233-.883V36.73Z" transform="translate(93.022 18.391)" fill="#fff"/>
  <path id="Path_288" data-name="Path 288" d="M190.719,43.973V36.73h2.566a3.1,3.1,0,0,1,1.4.294,1.849,1.849,0,0,1,.816.824,2.692,2.692,0,0,1,.291,1.178,2.532,2.532,0,0,1-.35,1.3,1.9,1.9,0,0,1-.99.766l1.574,2.944H194.8l-1.457-2.768h-1.517v2.768h-1.108Zm1.051-3.71h1.4a1.628,1.628,0,0,0,1.166-.353,1.253,1.253,0,0,0,.35-.942,1.4,1.4,0,0,0-.35-1,1.627,1.627,0,0,0-1.166-.353h-1.342v2.65Z" transform="translate(95.493 18.391)" fill="#fff"/>
  <path id="Path_289" data-name="Path 289" d="M195.77,43.993H194.6l2.566-7.3h1.283l2.565,7.3h-1.166l-.641-1.943h-2.8Zm.933-2.827h2.158l-1.051-3.121h-.059Z" transform="translate(97.438 18.371)" fill="#fff"/>
  <path id="Path_290" data-name="Path 290" d="M201.326,43.973V36.73h2.565a3.091,3.091,0,0,1,1.4.294,1.842,1.842,0,0,1,.816.824,2.694,2.694,0,0,1,.293,1.178,2.546,2.546,0,0,1-.35,1.3,1.9,1.9,0,0,1-.992.766l1.574,2.944h-1.225l-1.457-2.768h-1.516v2.768h-1.107Zm1.107-3.71h1.4A1.628,1.628,0,0,0,205,39.91a1.247,1.247,0,0,0,.35-.942,1.39,1.39,0,0,0-.35-1,1.627,1.627,0,0,0-1.166-.353h-1.34v2.65Z" transform="translate(100.804 18.391)" fill="#fff"/>
  <path id="Path_291" data-name="Path 291" d="M211.935,40.42a4.375,4.375,0,0,1-.408,2,2.8,2.8,0,0,1-1.166,1.3,3.269,3.269,0,0,1-3.381,0,3.148,3.148,0,0,1-1.166-1.3,5.115,5.115,0,0,1,0-4,3.116,3.116,0,0,1,1.166-1.3,3.164,3.164,0,0,1,1.691-.471,3.314,3.314,0,0,1,1.69.471,3.148,3.148,0,0,1,1.166,1.3A4.064,4.064,0,0,1,211.935,40.42Zm-1.049,0a3.477,3.477,0,0,0-.291-1.472,3,3,0,0,0-.758-.942,1.752,1.752,0,0,0-1.109-.294,2.4,2.4,0,0,0-1.108.294,1.77,1.77,0,0,0-.758.942,3.868,3.868,0,0,0,0,2.945,2.462,2.462,0,0,0,.758.942,1.853,1.853,0,0,0,1.108.294,2.4,2.4,0,0,0,1.109-.294,2.024,2.024,0,0,0,.758-.942A3.682,3.682,0,0,0,210.886,40.42Z" transform="translate(102.846 18.351)" fill="#fff"/>
  <path id="Path_292" data-name="Path 292" d="M211.233,43.993h-1.166l2.566-7.3h1.282l2.566,7.3h-1.166l-.642-1.943h-2.8Zm.992-2.827h2.156l-1.049-3.121h-.059Z" transform="translate(105.18 18.371)" fill="#fff"/>
  <path id="Path_293" data-name="Path 293" d="M217.411,43.973h-2.332V36.73h2.391a3.429,3.429,0,0,1,1.807.412,3.381,3.381,0,0,1,1.166,1.237,4.83,4.83,0,0,1,0,3.887,2.963,2.963,0,0,1-1.166,1.237A3.273,3.273,0,0,1,217.411,43.973Zm-1.283-.942h1.166a2.363,2.363,0,0,0,1.865-.707,2.926,2.926,0,0,0,.584-2,2.926,2.926,0,0,0-.584-2,2.234,2.234,0,0,0-1.807-.707h-1.225Z" transform="translate(107.69 18.391)" fill="#fff"/>
  <path id="Path_294" data-name="Path 294" d="M220.887,40.889l-.057.412-.176.883c-.059.294-.176.589-.233.883-.117.294-.176.471-.234.648h-.758c.059-.177.059-.353.117-.589s.117-.53.174-.824a5.185,5.185,0,0,0,.117-.942l.059-.412h.99Z" transform="translate(109.868 20.473)" fill="#fff"/>
  <path id="Path_295" data-name="Path 295" d="M223.121,43.973V36.73h1.108V40.2h.117l3.031-3.475h1.342l-2.916,3.3,2.916,4h-1.283L225.1,40.793l-.875,1v2.238h-1.108Z" transform="translate(111.717 18.391)" fill="#fff"/>
  <path id="Path_296" data-name="Path 296" d="M228.289,43.993h-1.166l2.565-7.3h1.283l2.565,7.3h-1.166l-.641-1.943h-2.8Zm.99-2.827h2.158l-1.05-3.121h-.059Z" transform="translate(113.72 18.371)" fill="#fff"/>
  <path id="Path_297" data-name="Path 297" d="M232.134,43.973V36.73H234.7a3.1,3.1,0,0,1,1.4.294,1.85,1.85,0,0,1,.816.824,2.693,2.693,0,0,1,.291,1.178,2.532,2.532,0,0,1-.35,1.3,1.9,1.9,0,0,1-.99.766l1.574,2.944h-1.225l-1.457-2.768h-1.516v2.768h-1.109Zm1.05-3.71h1.4a1.628,1.628,0,0,0,1.166-.353,1.247,1.247,0,0,0,.35-.942,1.39,1.39,0,0,0-.35-1,1.627,1.627,0,0,0-1.166-.353h-1.34v2.65Z" transform="translate(116.229 18.391)" fill="#fff"/>
  <path id="Path_298" data-name="Path 298" d="M242.2,36.73v7.3h-.99l-3.674-5.359h-.059v5.359h-1.108v-7.3h.992l3.672,5.359h.059V36.73Z" transform="translate(118.35 18.391)" fill="#fff"/>
  <path id="Path_299" data-name="Path 299" d="M242.12,43.993h-1.166l2.565-7.3H244.8l2.565,7.3H246.2l-.641-1.943h-2.8Zm.932-2.827h2.158l-1.05-3.121H244.1Z" transform="translate(120.646 18.371)" fill="#fff"/>
  <path id="Path_300" data-name="Path 300" d="M245.927,43.973V36.73h1.108v6.36H250.3v.942h-4.372Z" transform="translate(123.135 18.391)" fill="#fff"/>
  <path id="Path_301" data-name="Path 301" d="M254.534,39.2v.942h-3.207V39.2Z" transform="translate(125.839 19.628)" fill="#fff"/>
  <path id="Path_302" data-name="Path 302" d="M258.73,36.73v7.3h-1.108V38.261h-.059a1.072,1.072,0,0,1-.467.353,2.492,2.492,0,0,1-.992.177v-.883a2.493,2.493,0,0,0,.7-.118l.524-.353a.785.785,0,0,0,.293-.353c.057-.118.116-.177.116-.236h.992Z" transform="translate(128.232 18.391)" fill="#fff"/>
  <path id="Path_303" data-name="Path 303" d="M261.642,44.13a2.939,2.939,0,0,1-1.282-.236,2.131,2.131,0,0,1-.875-.707,1.658,1.658,0,0,1-.35-1.06h1.108a.921.921,0,0,0,.467.766,1.791,1.791,0,0,0,.99.294,1.623,1.623,0,0,0,1.051-.353,1.16,1.16,0,0,0,0-1.767,1.733,1.733,0,0,0-1.166-.353H261v-.883h.584a1.791,1.791,0,0,0,.99-.294.91.91,0,0,0,.35-.824,1.076,1.076,0,0,0-.35-.824,1.423,1.423,0,0,0-.875-.294,1.746,1.746,0,0,0-.932.294.858.858,0,0,0-.408.766h-1.05a1.651,1.651,0,0,1,.351-1.06,2.577,2.577,0,0,1,.873-.707,2.964,2.964,0,0,1,2.449.059,1.776,1.776,0,0,1,.758.707,1.993,1.993,0,0,1,.291,1,1.65,1.65,0,0,1-.35,1.06,1.71,1.71,0,0,1-.932.589v.059a1.712,1.712,0,0,1,1.107.589,1.616,1.616,0,0,1,.408,1.178,1.658,1.658,0,0,1-.35,1.06,2.447,2.447,0,0,1-.933.766A3.233,3.233,0,0,1,261.642,44.13Z" transform="translate(129.749 18.351)" fill="#fff"/>
  <path id="Path_304" data-name="Path 304" d="M263.409,44.013v-.824l2.449-2.532a8.4,8.4,0,0,1,.642-.707c.174-.235.291-.412.407-.589a2.1,2.1,0,0,0,.117-.589,1.122,1.122,0,0,0-1.283-1.178,1.224,1.224,0,0,0-.932.353,1.247,1.247,0,0,0-.35.942h-1.051a2.5,2.5,0,0,1,.293-1.178,1.717,1.717,0,0,1,.816-.766,2.69,2.69,0,0,1,2.448,0,1.724,1.724,0,0,1,.816.766,2.214,2.214,0,0,1,.293,1.06,1.639,1.639,0,0,1-.176.766,8.616,8.616,0,0,1-.525.883,14.2,14.2,0,0,1-1.049,1.178l-1.457,1.531v.059h3.264v.942h-4.723Z" transform="translate(131.889 18.351)" fill="#fff"/>
  <path id="Path_305" data-name="Path 305" d="M270,44.15a2.271,2.271,0,0,1-1.925-1,4.737,4.737,0,0,1-.7-2.768,4.736,4.736,0,0,1,.7-2.768,2.351,2.351,0,0,1,3.849,0,4.736,4.736,0,0,1,.7,2.768,4.737,4.737,0,0,1-.7,2.768A2.138,2.138,0,0,1,270,44.15Zm0-.942a1.348,1.348,0,0,0,1.166-.707,4.033,4.033,0,0,0,.408-2.061,4.033,4.033,0,0,0-.408-2.061A1.283,1.283,0,0,0,270,37.672a1.344,1.344,0,0,0-1.166.707,4.018,4.018,0,0,0-.408,2.061,4.017,4.017,0,0,0,.408,2.061A1.344,1.344,0,0,0,270,43.208Z" transform="translate(133.873 18.332)" fill="#fff"/>
  <path id="Path_306" data-name="Path 306" d="M274.269,44.15a2.268,2.268,0,0,1-1.924-1,4.725,4.725,0,0,1-.7-2.768,4.725,4.725,0,0,1,.7-2.768,2.349,2.349,0,0,1,3.848,0,4.725,4.725,0,0,1,.7,2.768,4.725,4.725,0,0,1-.7,2.768A2.137,2.137,0,0,1,274.269,44.15Zm0-.942a1.344,1.344,0,0,0,1.166-.707,4.033,4.033,0,0,0,.408-2.061,4.033,4.033,0,0,0-.408-2.061,1.28,1.28,0,0,0-1.166-.707,1.344,1.344,0,0,0-1.166.707,4.033,4.033,0,0,0-.408,2.061A4.033,4.033,0,0,0,273.1,42.5,1.281,1.281,0,0,0,274.269,43.208Z" transform="translate(136.013 18.332)" fill="#fff"/>
  <path id="Path_307" data-name="Path 307" d="M278.544,36.73v7.3h-1.107V38.261h-.059a1.073,1.073,0,0,1-.467.353,2.492,2.492,0,0,1-.992.177v-.883a2.492,2.492,0,0,0,.7-.118l.524-.353a.785.785,0,0,0,.293-.353c.057-.118.116-.177.116-.236h.992Z" transform="translate(138.152 18.391)" fill="#fff"/>
  <path id="Path_308" data-name="Path 308" d="M68.03,51.054a1.077,1.077,0,0,0-.466-.766,1.989,1.989,0,0,0-1.982.059.842.842,0,0,0-.35.707.724.724,0,0,0,.175.53,1.269,1.269,0,0,0,.466.295l.525.177.641.177a2.072,2.072,0,0,1,.641.236,6.321,6.321,0,0,1,.641.353,2.028,2.028,0,0,1,.466.53,1.485,1.485,0,0,1,.175.766,2.222,2.222,0,0,1-.291,1.06,1.806,1.806,0,0,1-.875.707,3.046,3.046,0,0,1-1.341.235,2.874,2.874,0,0,1-1.807-.53,1.719,1.719,0,0,1-.7-1.472H65a1.084,1.084,0,0,0,.466.824,2,2,0,0,0,1.049.294,1.851,1.851,0,0,0,1.049-.294.894.894,0,0,0,.408-.824.673.673,0,0,0-.175-.471,1.266,1.266,0,0,0-.466-.294c-.175-.059-.408-.177-.641-.236l-.816-.235a3.3,3.3,0,0,1-1.283-.648,1.557,1.557,0,0,1-.466-1.178,2.049,2.049,0,0,1,.292-1.06,2.588,2.588,0,0,1,.874-.707,3.3,3.3,0,0,1,2.449,0,2.356,2.356,0,0,1,.816.648,1.839,1.839,0,0,1,.291,1H68.03Z" transform="translate(32.019 24.56)" fill="#fff"/>
  <path id="Path_309" data-name="Path 309" d="M68.222,56.04V49.209h4.256v.883H69.272v2.061H72.3v.883H69.272v2.12h3.265v.883Z" transform="translate(34.159 24.639)" fill="#fff"/>
  <path id="Path_310" data-name="Path 310" d="M77.433,49.209V56.04H76.5l-3.44-5.006H73V56.04H71.952V49.209h.933l3.44,5.006h.058V49.209Z" transform="translate(36.026 24.639)" fill="#fff"/>
  <path id="Path_311" data-name="Path 311" d="M77.625,49.209V56.04H76.575V49.209Z" transform="translate(38.341 24.639)" fill="#fff"/>
  <path id="Path_312" data-name="Path 312" d="M84.271,52.663a3.9,3.9,0,0,1-.408,1.885,3.248,3.248,0,0,1-1.108,1.237,3.212,3.212,0,0,1-3.148,0A3.25,3.25,0,0,1,78.5,54.548a4.556,4.556,0,0,1,0-3.769,3.25,3.25,0,0,1,1.108-1.237,3.213,3.213,0,0,1,3.148,0,3.248,3.248,0,0,1,1.108,1.237A3.9,3.9,0,0,1,84.271,52.663Zm-.991,0a3.591,3.591,0,0,0-.291-1.413,2.2,2.2,0,0,0-.758-.883,1.679,1.679,0,0,0-1.049-.294,2,2,0,0,0-1.049.294,2.3,2.3,0,0,0-.758.883,3.182,3.182,0,0,0-.291,1.413,3.59,3.59,0,0,0,.291,1.413,1.87,1.87,0,0,0,.758.883,2.017,2.017,0,0,0,2.1,0,2.3,2.3,0,0,0,.758-.883A3.377,3.377,0,0,0,83.279,52.663Z" transform="translate(39.1 24.599)" fill="#fff"/>
  <path id="Path_313" data-name="Path 313" d="M83.063,56.04V49.209h2.39a2.758,2.758,0,0,1,1.283.294,1.6,1.6,0,0,1,.758.766,2.26,2.26,0,0,1,.233,1.119,2.339,2.339,0,0,1-.291,1.178,2.008,2.008,0,0,1-.933.766L88.019,56.1H86.853l-1.4-2.591H84V56.1h-.933Zm.991-3.474h1.283a1.789,1.789,0,0,0,1.108-.294,1.205,1.205,0,0,0,.35-.883,1.25,1.25,0,0,0-.35-.942,1.475,1.475,0,0,0-1.108-.353H84.054Z" transform="translate(41.59 24.639)" fill="#fff"/>
  <path id="Path_314" data-name="Path 314" d="M92.545,51.054a1.078,1.078,0,0,0-.466-.766,1.989,1.989,0,0,0-1.982.059.842.842,0,0,0-.35.707.724.724,0,0,0,.175.53,1.269,1.269,0,0,0,.466.295l.525.177.641.177a2.075,2.075,0,0,1,.641.236,6.3,6.3,0,0,1,.641.353,2.025,2.025,0,0,1,.467.53,1.485,1.485,0,0,1,.175.766,2.222,2.222,0,0,1-.291,1.06,1.807,1.807,0,0,1-.875.707,3.046,3.046,0,0,1-1.341.235,2.874,2.874,0,0,1-1.807-.53,1.719,1.719,0,0,1-.7-1.472h1.049a1.085,1.085,0,0,0,.467.824,2,2,0,0,0,1.049.294,1.851,1.851,0,0,0,1.049-.294.894.894,0,0,0,.408-.824.672.672,0,0,0-.175-.471,1.267,1.267,0,0,0-.466-.294c-.175-.059-.408-.177-.641-.236l-.816-.235a3.292,3.292,0,0,1-1.283-.648,1.556,1.556,0,0,1-.466-1.178,2.05,2.05,0,0,1,.291-1.06,2.588,2.588,0,0,1,.875-.707,3.3,3.3,0,0,1,2.449,0,2.357,2.357,0,0,1,.816.648,1.839,1.839,0,0,1,.291,1h-.816Z" transform="translate(44.294 24.56)" fill="#fff"/>
  <path id="Path_315" data-name="Path 315" d="M92.7,56.04V49.209h4.256v.883H93.748v2.061H96.78v.883H93.748v2.12h3.265v.883Z" transform="translate(46.414 24.639)" fill="#fff"/>
  <path id="Path_316" data-name="Path 316" d="M102.181,51.466h-1.05a1.334,1.334,0,0,0-.641-1,1.956,1.956,0,0,0-1.166-.353,2,2,0,0,0-1.049.294,2.3,2.3,0,0,0-.758.883,3.182,3.182,0,0,0-.291,1.413,3.59,3.59,0,0,0,.291,1.413,1.869,1.869,0,0,0,.758.883,2,2,0,0,0,1.049.294,1.783,1.783,0,0,0,1.108-.353,1.67,1.67,0,0,0,.641-1h1.05a2.642,2.642,0,0,1-.467,1.178,2.774,2.774,0,0,1-.991.824,3.213,3.213,0,0,1-1.341.294,2.866,2.866,0,0,1-1.574-.412,3.247,3.247,0,0,1-1.108-1.237,4.554,4.554,0,0,1,0-3.769,3.247,3.247,0,0,1,1.108-1.237,2.866,2.866,0,0,1,1.574-.412,2.944,2.944,0,0,1,1.283.294,3.208,3.208,0,0,1,.991.766A1.779,1.779,0,0,1,102.181,51.466Z" transform="translate(48.184 24.619)" fill="#fff"/>
  <path id="Path_317" data-name="Path 317" d="M107,52.663a3.886,3.886,0,0,1-.408,1.885,3.243,3.243,0,0,1-1.108,1.237,3.212,3.212,0,0,1-3.148,0,3.255,3.255,0,0,1-1.108-1.237,4.554,4.554,0,0,1,0-3.769,3.255,3.255,0,0,1,1.108-1.237,3.213,3.213,0,0,1,3.148,0,3.243,3.243,0,0,1,1.108,1.237A3.886,3.886,0,0,1,107,52.663Zm-.99,0a3.6,3.6,0,0,0-.291-1.413,2.2,2.2,0,0,0-.758-.883,1.681,1.681,0,0,0-1.05-.294,2,2,0,0,0-1.049.294,2.3,2.3,0,0,0-.758.883,3.172,3.172,0,0,0-.291,1.413,3.577,3.577,0,0,0,.291,1.413,1.873,1.873,0,0,0,.758.883,2.018,2.018,0,0,0,2.1,0,2.316,2.316,0,0,0,.758-.883A2.673,2.673,0,0,0,106.007,52.663Z" transform="translate(50.48 24.599)" fill="#fff"/>
  <path id="Path_318" data-name="Path 318" d="M111.272,49.209V56.04h-.932L106.9,51.034h-.059V56.04h-1.049V49.209h.933l3.44,5.006h.059V49.209Z" transform="translate(52.969 24.639)" fill="#fff"/>
  <path id="Path_319" data-name="Path 319" d="M112.631,56.04h-2.217V49.209h2.275a3.137,3.137,0,0,1,1.69.412,3.065,3.065,0,0,1,1.108,1.178,4.409,4.409,0,0,1,.408,1.826,3.51,3.51,0,0,1-.408,1.826,3.547,3.547,0,0,1-1.108,1.178A3.214,3.214,0,0,1,112.631,56.04Zm-1.166-.883h1.108a2.364,2.364,0,0,0,1.748-.648,2.6,2.6,0,0,0,.584-1.884,2.7,2.7,0,0,0-.584-1.884,2.138,2.138,0,0,0-1.69-.648h-1.166Z" transform="translate(55.284 24.639)" fill="#fff"/>
  <path id="Path_320" data-name="Path 320" d="M115.485,56.04h-1.108l2.449-6.831h1.166l2.449,6.831h-1.108l-.642-1.826h-2.623Zm.875-2.65H118.4l-.992-2.945h-.057Z" transform="translate(57.268 24.639)" fill="#fff"/>
  <path id="Path_321" data-name="Path 321" d="M119.078,56.04V49.209h2.391a2.757,2.757,0,0,1,1.283.294,1.606,1.606,0,0,1,.758.766,2.27,2.27,0,0,1,.233,1.119,2.331,2.331,0,0,1-.291,1.178,2.005,2.005,0,0,1-.933.766l1.516,2.768h-1.166l-1.4-2.591h-1.457V56.1h-.933Zm.992-3.474h1.282a1.794,1.794,0,0,0,1.109-.294,1.207,1.207,0,0,0,.35-.883,1.253,1.253,0,0,0-.35-.942,1.479,1.479,0,0,0-1.109-.353H120.07Z" transform="translate(59.622 24.639)" fill="#fff"/>
  <path id="Path_322" data-name="Path 322" d="M122.73,49.209H123.9l1.75,3.121h.059l1.748-3.121h1.166L126.17,53.39V56.1h-1.049V53.39Z" transform="translate(61.451 24.639)" fill="#fff"/>
  <path id="Path_323" data-name="Path 323" d="M132.795,51.054a1.08,1.08,0,0,0-.467-.766,1.989,1.989,0,0,0-1.982.059.844.844,0,0,0-.35.707.728.728,0,0,0,.174.53,1.28,1.28,0,0,0,.467.295l.525.177.641.177a2.077,2.077,0,0,1,.642.236,6.442,6.442,0,0,1,.641.353,2.023,2.023,0,0,1,.467.53,1.481,1.481,0,0,1,.174.766,2.213,2.213,0,0,1-.291,1.06,1.8,1.8,0,0,1-.875.707,3.044,3.044,0,0,1-1.34.235,2.878,2.878,0,0,1-1.808-.53,1.722,1.722,0,0,1-.7-1.472h1.05a1.081,1.081,0,0,0,.465.824,2.005,2.005,0,0,0,1.05.294,1.848,1.848,0,0,0,1.049-.294.9.9,0,0,0,.408-.824.671.671,0,0,0-.176-.471,1.26,1.26,0,0,0-.465-.294c-.176-.059-.408-.177-.642-.236l-.816-.235a3.293,3.293,0,0,1-1.282-.648,1.552,1.552,0,0,1-.467-1.178,2.043,2.043,0,0,1,.291-1.06,2.585,2.585,0,0,1,.875-.707,3.3,3.3,0,0,1,2.449,0,2.343,2.343,0,0,1,.815.648,1.833,1.833,0,0,1,.293,1h-.816Z" transform="translate(64.447 24.56)" fill="#fff"/>
  <path id="Path_324" data-name="Path 324" d="M138.7,51.466h-1.05a1.334,1.334,0,0,0-.641-1,1.955,1.955,0,0,0-1.166-.353,2,2,0,0,0-1.049.294,2.3,2.3,0,0,0-.759.883,3.192,3.192,0,0,0-.291,1.413,3.6,3.6,0,0,0,.291,1.413,1.868,1.868,0,0,0,.759.883,2,2,0,0,0,1.049.294,1.781,1.781,0,0,0,1.107-.353,1.665,1.665,0,0,0,.641-1h1.05a2.644,2.644,0,0,1-.467,1.178,2.784,2.784,0,0,1-.992.824,3.212,3.212,0,0,1-1.34.294,2.865,2.865,0,0,1-1.574-.412,3.242,3.242,0,0,1-1.108-1.237,4.554,4.554,0,0,1,0-3.769,3.242,3.242,0,0,1,1.108-1.237,2.865,2.865,0,0,1,1.574-.412,2.95,2.95,0,0,1,1.283.294,3.2,3.2,0,0,1,.99.766A1.778,1.778,0,0,1,138.7,51.466Z" transform="translate(66.47 24.619)" fill="#fff"/>
  <path id="Path_325" data-name="Path 325" d="M137.571,56.04V49.209h1.05v3H142v-3h1.049V56.04H142V53.1h-3.381v3h-1.05Z" transform="translate(68.882 24.639)" fill="#fff"/>
  <path id="Path_326" data-name="Path 326" d="M148.142,52.663a3.9,3.9,0,0,1-.408,1.885,3.258,3.258,0,0,1-1.109,1.237,3.212,3.212,0,0,1-3.148,0,3.267,3.267,0,0,1-1.108-1.237,4.554,4.554,0,0,1,0-3.769,3.268,3.268,0,0,1,1.108-1.237,3.213,3.213,0,0,1,3.148,0,3.259,3.259,0,0,1,1.109,1.237A3.9,3.9,0,0,1,148.142,52.663Zm-.992,0a3.6,3.6,0,0,0-.291-1.413,2.2,2.2,0,0,0-.758-.883,1.681,1.681,0,0,0-1.05-.294,2,2,0,0,0-1.049.294,2.3,2.3,0,0,0-.758.883,3.193,3.193,0,0,0-.291,1.413,3.6,3.6,0,0,0,.291,1.413,1.873,1.873,0,0,0,.758.883,2.018,2.018,0,0,0,2.1,0,2.316,2.316,0,0,0,.758-.883A3.389,3.389,0,0,0,147.15,52.663Z" transform="translate(71.08 24.599)" fill="#fff"/>
  <path id="Path_327" data-name="Path 327" d="M152.92,52.663a3.886,3.886,0,0,1-.408,1.885,3.243,3.243,0,0,1-1.108,1.237,3.212,3.212,0,0,1-3.148,0,3.243,3.243,0,0,1-1.108-1.237,4.554,4.554,0,0,1,0-3.769,3.243,3.243,0,0,1,1.108-1.237,3.213,3.213,0,0,1,3.148,0,3.243,3.243,0,0,1,1.108,1.237A3.886,3.886,0,0,1,152.92,52.663Zm-.99,0a3.6,3.6,0,0,0-.291-1.413,1.869,1.869,0,0,0-.759-.883,1.677,1.677,0,0,0-1.049-.294,2,2,0,0,0-1.049.294,2.3,2.3,0,0,0-.758.883,3.172,3.172,0,0,0-.291,1.413,3.577,3.577,0,0,0,.291,1.413,1.865,1.865,0,0,0,.758.883,2.016,2.016,0,0,0,2.1,0,2.305,2.305,0,0,0,.759-.883A2.673,2.673,0,0,0,151.929,52.663Z" transform="translate(73.473 24.599)" fill="#fff"/>
  <path id="Path_328" data-name="Path 328" d="M151.713,56.04V49.209h1.049v5.948h3.09v.883Z" transform="translate(75.963 24.639)" fill="#fff"/>
  <path id="Path_329" data-name="Path 329" d="M243.6,51.466h-1.049a1.332,1.332,0,0,0-.642-1,1.955,1.955,0,0,0-1.166-.353,2,2,0,0,0-1.049.294,2.3,2.3,0,0,0-.758.883,3.171,3.171,0,0,0-.291,1.413,3.576,3.576,0,0,0,.291,1.413,1.874,1.874,0,0,0,.758.883,2,2,0,0,0,1.049.294,1.787,1.787,0,0,0,1.109-.353,1.671,1.671,0,0,0,.641-1h1.049a2.626,2.626,0,0,1-.467,1.178,2.762,2.762,0,0,1-.99.824,3.214,3.214,0,0,1-1.342.294,2.867,2.867,0,0,1-1.574-.412,3.267,3.267,0,0,1-1.108-1.237,4.554,4.554,0,0,1,0-3.769,3.267,3.267,0,0,1,1.108-1.237,2.868,2.868,0,0,1,1.574-.412,2.945,2.945,0,0,1,1.283.294,4.108,4.108,0,0,1,.992.766A1.777,1.777,0,0,1,243.6,51.466Z" transform="translate(118.992 24.619)" fill="#fff"/>
  <path id="Path_330" data-name="Path 330" d="M242.43,56.04V49.209h2.508a2.678,2.678,0,0,1,1.223.236,1.86,1.86,0,0,1,.7.648,1.749,1.749,0,0,1,.233.942,1.4,1.4,0,0,1-.35,1,1.871,1.871,0,0,1-.816.471v.059a.87.87,0,0,1,.641.235,1.283,1.283,0,0,1,.525.589,1.959,1.959,0,0,1,.233.883,1.735,1.735,0,0,1-.233.942,1.67,1.67,0,0,1-.758.648,2.782,2.782,0,0,1-1.283.236H242.43Zm1.049-3.887h1.4a1.419,1.419,0,0,0,.873-.294.952.952,0,0,0,.351-.766.978.978,0,0,0-.293-.707,1.356,1.356,0,0,0-.932-.294h-1.4Zm0,3h1.459a1.722,1.722,0,0,0,1.049-.294.8.8,0,0,0,.291-.707,1.076,1.076,0,0,0-.35-.824,1.36,1.36,0,0,0-.99-.353H243.42v2.179Z" transform="translate(121.385 24.639)" fill="#fff"/>
  <path id="Path_331" data-name="Path 331" d="M250.319,51.054a1.08,1.08,0,0,0-.467-.766,1.989,1.989,0,0,0-1.982.059.844.844,0,0,0-.35.707.722.722,0,0,0,.176.53,1.262,1.262,0,0,0,.465.295l.525.177.641.177a2.077,2.077,0,0,1,.642.236,6.274,6.274,0,0,1,.641.353,3.786,3.786,0,0,1,.467.53,1.639,1.639,0,0,1,.176.766,2.215,2.215,0,0,1-.293,1.06,1.806,1.806,0,0,1-.873.707,3.051,3.051,0,0,1-1.342.235,2.87,2.87,0,0,1-1.807-.53,1.719,1.719,0,0,1-.7-1.472h1.051a1.081,1.081,0,0,0,.465.824,2.005,2.005,0,0,0,1.051.294,1.848,1.848,0,0,0,1.049-.294.9.9,0,0,0,.408-.824.677.677,0,0,0-.174-.471,1.278,1.278,0,0,0-.467-.294c-.176-.059-.408-.177-.642-.236l-.816-.235a3.293,3.293,0,0,1-1.282-.648,1.552,1.552,0,0,1-.467-1.178,2.057,2.057,0,0,1,.291-1.06,2.133,2.133,0,0,1,.875-.707,3.3,3.3,0,0,1,2.449,0,2.364,2.364,0,0,1,.816.648,1.845,1.845,0,0,1,.291,1h-.816Z" transform="translate(123.291 24.56)" fill="#fff"/>
  <path id="Path_332" data-name="Path 332" d="M250.511,56.04V49.209h4.256v.883H251.56v2.061h3.033v.883H251.56v2.12h3.266v.883Z" transform="translate(125.431 24.639)" fill="#fff"/>
  <path id="Path_333" data-name="Path 333" d="M256.63,56.04h-1.108l2.448-6.831h1.166l2.449,6.831h-1.107l-.641-1.826h-2.625Zm.933-2.65H259.6l-.99-2.945h-.059Z" transform="translate(127.94 24.639)" fill="#fff"/>
  <path id="Path_334" data-name="Path 334" d="M262.712,51.034v.824h-1.051v4.358h-.99V51.859h-.758v-.824h.758v-.589a1.367,1.367,0,0,1,.233-.824,1.167,1.167,0,0,1,.584-.471,1.929,1.929,0,0,1,1.283-.118c.174.059.233.059.291.118l-.234.824c-.057,0-.116-.059-.174-.059h-.291a.709.709,0,0,0-.525.177.722.722,0,0,0-.176.53v.471h1.051Z" transform="translate(130.138 24.521)" fill="#fff"/>
  <path id="Path_335" data-name="Path 335" d="M265.062,51.034v.824h-1.108v4.358h-.992V51.859h-.758v-.824h.758v-.589a1.358,1.358,0,0,1,.234-.824,1.163,1.163,0,0,1,.582-.471,1.929,1.929,0,0,1,1.283-.118c.174.059.233.059.291.118l-.233.824c-.059,0-.117-.059-.176-.059h-.291a.709.709,0,0,0-.525.177.722.722,0,0,0-.174.53v.471h1.108Z" transform="translate(131.286 24.521)" fill="#fff"/>
  <path id="Path_336" data-name="Path 336" d="M265.333,50.19a.771.771,0,0,1-.467-.177c-.174-.118-.174-.235-.174-.412a.535.535,0,0,1,.174-.412.659.659,0,0,1,.467-.177.775.775,0,0,1,.467.177.575.575,0,0,1,0,.824A.531.531,0,0,1,265.333,50.19Zm-.525,5.948V51.015h.992v5.123Z" transform="translate(132.531 24.54)" fill="#fff"/>
  <path id="Path_337" data-name="Path 337" d="M267.315,49.209V56.04h-.992V49.209Z" transform="translate(133.348 24.639)" fill="#fff"/>
  <path id="Path_338" data-name="Path 338" d="M268.4,50.19a.774.774,0,0,1-.467-.177c-.174-.118-.174-.235-.174-.412a.54.54,0,0,1,.174-.412.661.661,0,0,1,.467-.177.772.772,0,0,1,.467.177.575.575,0,0,1,0,.824A.481.481,0,0,1,268.4,50.19Zm-.467,5.948V51.015h.992v5.123Z" transform="translate(134.068 24.54)" fill="#fff"/>
  <path id="Path_339" data-name="Path 339" d="M270.987,55.627a1.932,1.932,0,0,1-.875-.177,1.809,1.809,0,0,1-.641-.53,1.426,1.426,0,0,1-.234-.883,1.262,1.262,0,0,1,.176-.707,1.194,1.194,0,0,1,.465-.471,2.081,2.081,0,0,1,.642-.235,2.894,2.894,0,0,1,.7-.118c.291-.059.525-.059.758-.118a.673.673,0,0,0,.408-.118.306.306,0,0,0,.117-.235.942.942,0,0,0-.234-.707.922.922,0,0,0-.7-.236.983.983,0,0,0-.758.236c-.174.177-.35.294-.408.471l-.932-.236a1.778,1.778,0,0,1,.815-1,2.949,2.949,0,0,1,1.283-.294,2.594,2.594,0,0,1,.642.059,2.086,2.086,0,0,1,.641.235,1.4,1.4,0,0,1,.467.53,2.1,2.1,0,0,1,.174.942V55.45h-.99v-.707h-.059a2.232,2.232,0,0,1-.525.53C271.745,55.568,271.395,55.627,270.987,55.627Zm.233-.766a1.231,1.231,0,0,0,.7-.177,1.574,1.574,0,0,0,.467-.412,1,1,0,0,0,.176-.589v-.648c-.059.059-.176.059-.293.118-.174.059-.35.059-.524.118-.176,0-.293.059-.408.059a2.847,2.847,0,0,0-.758.235c-.234.118-.293.294-.293.589a.82.82,0,0,0,.293.589C270.753,54.92,270.928,54.861,271.219,54.861Z" transform="translate(134.807 25.169)" fill="#fff"/>
  <path id="Path_340" data-name="Path 340" d="M275.513,50.74v.824h-1.05v2.827a.785.785,0,0,0,.176.589,1.074,1.074,0,0,0,.408.118h.35l.176.824c-.059,0-.117.059-.234.059s-.233.059-.408.059a3.4,3.4,0,0,1-.758-.118.834.834,0,0,1-.525-.471,1.694,1.694,0,0,1-.233-.766V51.623h-.758V50.8h.758V49.562h.992V50.8h1.107Z" transform="translate(136.519 24.816)" fill="#fff"/>
  <path id="Path_341" data-name="Path 341" d="M277.495,55.647a2.2,2.2,0,0,1-1.283-.353,2.131,2.131,0,0,1-.816-.942,3.576,3.576,0,0,1,0-2.827,2.219,2.219,0,0,1,2.041-1.3,2.345,2.345,0,0,1,1.107.235,1.857,1.857,0,0,1,.816.824,2.752,2.752,0,0,1,.35,1.472v.353h-3.615a1.625,1.625,0,0,0,.408,1.119,1.316,1.316,0,0,0,1.049.412,1.6,1.6,0,0,0,.758-.177,1.028,1.028,0,0,0,.467-.53l.933.177a1.614,1.614,0,0,1-.758,1A1.957,1.957,0,0,1,277.495,55.647Zm-1.459-3.121h2.625a1.492,1.492,0,0,0-.351-1,1.259,1.259,0,0,0-.932-.412,1.231,1.231,0,0,0-.7.177,1.758,1.758,0,0,0-.467.471C276.153,52.054,276.094,52.29,276.036,52.526Z" transform="translate(137.744 25.15)" fill="#fff"/>
  <path id="Path_342" data-name="Path 342" d="M280.874,56.138a2.392,2.392,0,0,1-1.108-.294,2.462,2.462,0,0,1-.758-.942,3.577,3.577,0,0,1-.291-1.413,3.366,3.366,0,0,1,.291-1.413,1.911,1.911,0,0,1,.758-.883,1.85,1.85,0,0,1,1.108-.294,1.447,1.447,0,0,1,.758.177,3.228,3.228,0,0,1,.467.353,1.234,1.234,0,0,1,.234.353h.057V49.248h.992V56.02h-.992V55.2h-.057a1.233,1.233,0,0,1-.234.353,3.218,3.218,0,0,1-.467.353A1.446,1.446,0,0,1,280.874,56.138Zm.234-.883a1.14,1.14,0,0,0,.99-.53,2.575,2.575,0,0,0,0-2.591,1.09,1.09,0,0,0-.99-.471,1.161,1.161,0,0,0-.758.235,1.824,1.824,0,0,0-.467.648,2.616,2.616,0,0,0,0,1.884,1.319,1.319,0,0,0,.467.648A1.122,1.122,0,0,0,281.108,55.255Z" transform="translate(139.553 24.658)" fill="#fff"/>
  <path id="Path_343" data-name="Path 343" d="M290.219,51.466H289.17a1.334,1.334,0,0,0-.641-1,1.961,1.961,0,0,0-1.166-.353,2,2,0,0,0-1.051.294,2.315,2.315,0,0,0-.758.883,3.191,3.191,0,0,0-.291,1.413,3.6,3.6,0,0,0,.291,1.413,1.873,1.873,0,0,0,.758.883,2,2,0,0,0,1.051.294,1.786,1.786,0,0,0,1.107-.353,1.671,1.671,0,0,0,.641-1h1.049a2.625,2.625,0,0,1-.465,1.178,2.78,2.78,0,0,1-.992.824,3.212,3.212,0,0,1-1.34.294,2.86,2.86,0,0,1-1.574-.412,3.258,3.258,0,0,1-1.109-1.237,4.554,4.554,0,0,1,0-3.769,3.258,3.258,0,0,1,1.109-1.237,2.862,2.862,0,0,1,1.574-.412,2.943,2.943,0,0,1,1.282.294,3.223,3.223,0,0,1,.992.766A1.776,1.776,0,0,1,290.219,51.466Z" transform="translate(142.335 24.619)" fill="#fff"/>
  <path id="Path_344" data-name="Path 344" d="M291.189,55.647a2.22,2.22,0,0,1-2.041-1.3,3.576,3.576,0,0,1,0-2.827,2.248,2.248,0,0,1,4.082,0,3.576,3.576,0,0,1,0,2.827,2.141,2.141,0,0,1-.816.942A1.9,1.9,0,0,1,291.189,55.647Zm0-.824a1.069,1.069,0,0,0,.758-.236,2.645,2.645,0,0,0,.467-.648,2.4,2.4,0,0,0,.174-.883,2,2,0,0,0-.174-.883,1.336,1.336,0,0,0-.467-.648,1.163,1.163,0,0,0-.758-.236,1.067,1.067,0,0,0-.758.236,2.61,2.61,0,0,0-.467.648,2.377,2.377,0,0,0-.176.883,1.977,1.977,0,0,0,.176.883,1.327,1.327,0,0,0,.467.648A1.64,1.64,0,0,0,291.189,54.822Z" transform="translate(144.631 25.15)" fill="#fff"/>
  <path id="Path_345" data-name="Path 345" d="M294.743,56.138a2.391,2.391,0,0,1-1.107-.294,2.448,2.448,0,0,1-.758-.942,3.577,3.577,0,0,1-.291-1.413,3.366,3.366,0,0,1,.291-1.413,1.9,1.9,0,0,1,.758-.883,1.85,1.85,0,0,1,1.107-.294,1.447,1.447,0,0,1,.758.177,3.228,3.228,0,0,1,.467.353,1.228,1.228,0,0,1,.233.353h.059V49.248h.992V56.02h-.992V55.2H296.2a1.226,1.226,0,0,1-.233.353,3.218,3.218,0,0,1-.467.353A1.163,1.163,0,0,1,294.743,56.138Zm.176-.883a1.14,1.14,0,0,0,.99-.53,2.575,2.575,0,0,0,0-2.591,1.09,1.09,0,0,0-.99-.471,1.167,1.167,0,0,0-.759.235,1.84,1.84,0,0,0-.465.648,2.616,2.616,0,0,0,0,1.884,1.325,1.325,0,0,0,.465.648A1.128,1.128,0,0,0,294.919,55.255Z" transform="translate(146.498 24.658)" fill="#fff"/>
  <path id="Path_346" data-name="Path 346" d="M298.9,55.647a2.2,2.2,0,0,1-1.282-.353,2.132,2.132,0,0,1-.816-.942,3.56,3.56,0,0,1,0-2.827,2.219,2.219,0,0,1,2.041-1.3,2.349,2.349,0,0,1,1.108.235,1.857,1.857,0,0,1,.816.824,2.751,2.751,0,0,1,.35,1.472v.353H297.5a1.625,1.625,0,0,0,.408,1.119,1.314,1.314,0,0,0,1.049.412,1.6,1.6,0,0,0,.758-.177,1.034,1.034,0,0,0,.467-.53l.933.177a1.614,1.614,0,0,1-.758,1A2.044,2.044,0,0,1,298.9,55.647Zm-1.457-3.121h2.623a1.49,1.49,0,0,0-.35-1,1.259,1.259,0,0,0-.932-.412,1.237,1.237,0,0,0-.7.177,1.775,1.775,0,0,0-.465.471A2.043,2.043,0,0,0,297.443,52.526Z" transform="translate(148.462 25.15)" fill="#fff"/>
  <path id="Path_347" data-name="Path 347" d="M302.591,51.76a.659.659,0,0,1-.467-.177.724.724,0,0,1,0-.942.7.7,0,0,1,.933,0,.724.724,0,0,1,0,.942A.771.771,0,0,1,302.591,51.76Zm0,3.71a.659.659,0,0,1-.467-.177.724.724,0,0,1,0-.942.7.7,0,0,1,.933,0,.724.724,0,0,1,0,.942A.659.659,0,0,1,302.591,55.47Z" transform="translate(151.186 25.267)" fill="#fff"/>
  <path id="Path_348" data-name="Path 348" d="M307.545,56.138a2.2,2.2,0,0,1-1.108-.236,4.406,4.406,0,0,1-.816-.648,1.786,1.786,0,0,1-.291-.942h.99a.9.9,0,0,0,.408.707,1.385,1.385,0,0,0,.816.294,1.539,1.539,0,0,0,.7-.177,1.385,1.385,0,0,0,.467-.53,1.575,1.575,0,0,0,.176-.707,1.638,1.638,0,0,0-.176-.766,1.2,1.2,0,0,0-1.166-.707,2.45,2.45,0,0,0-.641.118,1.523,1.523,0,0,0-.525.294l-.933-.118.408-3.474h3.732v.883h-2.857l-.233,1.943h.059a2.022,2.022,0,0,1,.524-.353,2.913,2.913,0,0,1,.7-.118,2.4,2.4,0,0,1,1.109.294,1.734,1.734,0,0,1,.758.824,2.712,2.712,0,0,1,.291,1.178,2.519,2.519,0,0,1-.291,1.178,1.855,1.855,0,0,1-.816.824A4.508,4.508,0,0,1,307.545,56.138Z" transform="translate(152.879 24.658)" fill="#fff"/>
  <path id="Path_349" data-name="Path 349" d="M311.567,56.177a2.679,2.679,0,0,1-1.225-.236,1.84,1.84,0,0,1-.816-.648,1.88,1.88,0,0,1-.35-1h1.049a.9.9,0,0,0,.408.707,1.607,1.607,0,0,0,.933.294,1.791,1.791,0,0,0,.99-.294,1.126,1.126,0,0,0,.408-.824.9.9,0,0,0-.408-.824A1.566,1.566,0,0,0,311.45,53h-.582v-.824h.582a1.606,1.606,0,0,0,.933-.294,1,1,0,0,0,.35-.824,1.129,1.129,0,0,0-.291-.766,1.258,1.258,0,0,0-.816-.295,1.422,1.422,0,0,0-.875.295.919.919,0,0,0-.408.766h-1.049a1.6,1.6,0,0,1,.35-1,2.214,2.214,0,0,1,.816-.648,2.345,2.345,0,0,1,1.108-.235,2.029,2.029,0,0,1,1.865.942,1.735,1.735,0,0,1,.233.942,1.832,1.832,0,0,1-.291,1,1.38,1.38,0,0,1-.875.53v.059a1.518,1.518,0,0,1,1.05.53,1.658,1.658,0,0,1,.35,1.06,2.008,2.008,0,0,1-.291,1,2.132,2.132,0,0,1-.875.707A3.417,3.417,0,0,1,311.567,56.177Z" transform="translate(154.804 24.619)" fill="#fff"/>
  <path id="Path_350" data-name="Path 350" d="M315.587,56.2a2.018,2.018,0,0,1-1.807-.942,4.151,4.151,0,0,1-.641-2.591,4.575,4.575,0,0,1,.641-2.591,2.231,2.231,0,0,1,1.807-.942,2.019,2.019,0,0,1,1.808.942,4.151,4.151,0,0,1,.641,2.591,4.575,4.575,0,0,1-.641,2.591A2.019,2.019,0,0,1,315.587,56.2Zm0-.883a1.122,1.122,0,0,0,1.051-.707,4.38,4.38,0,0,0,.408-1.943,3.439,3.439,0,0,0-.408-1.943,1.182,1.182,0,0,0-1.051-.707,1.122,1.122,0,0,0-1.049.707,4.38,4.38,0,0,0-.408,1.943,3.439,3.439,0,0,0,.408,1.943A1.122,1.122,0,0,0,315.587,55.314Z" transform="translate(156.789 24.599)" fill="#fff"/>
  <path id="Path_351" data-name="Path 351" d="M319.608,49.209V56.04h-1.049V50.563H318.5a1.065,1.065,0,0,1-.467.353,2.195,2.195,0,0,1-.932.177v-.824a2.083,2.083,0,0,0,.641-.118,3.329,3.329,0,0,0,.467-.294,1.591,1.591,0,0,0,.291-.353c.059-.118.117-.177.117-.235h.99Z" transform="translate(158.773 24.639)" fill="#fff"/>
  <path id="Path_352" data-name="Path 352" d="M322.444,49.209V56.04H321.4V50.563h-.059a1.065,1.065,0,0,1-.467.353,2.195,2.195,0,0,1-.932.177v-.824a2.083,2.083,0,0,0,.641-.118,3.329,3.329,0,0,0,.467-.294,1.591,1.591,0,0,0,.291-.353c.059-.118.117-.177.117-.235h.99Z" transform="translate(160.193 24.639)" fill="#fff"/>
  <path id="Path_353" data-name="Path 353" d="M322.852,56.1v-.766l2.274-2.414a3.1,3.1,0,0,0,.582-.707,1.546,1.546,0,0,0,.35-.589,1.752,1.752,0,0,0,.117-.589,1.076,1.076,0,0,0-.35-.824,1.423,1.423,0,0,0-.875-.294,1.183,1.183,0,0,0-.875.353,1.207,1.207,0,0,0-.35.883h-.99a2.465,2.465,0,0,1,.291-1.119,2.2,2.2,0,0,1,.758-.707,2.345,2.345,0,0,1,1.107-.236,2.209,2.209,0,0,1,1.109.236,1.783,1.783,0,0,1,.758.707,2.007,2.007,0,0,1,.291,1,3.467,3.467,0,0,1-.117.766,4.088,4.088,0,0,1-.467.824,14.5,14.5,0,0,1-.99,1.06L324.134,55.1v.059h3.033v.883h-4.315Z" transform="translate(161.593 24.58)" fill="#fff"/>
</svg>
